<?xml version="1.0" encoding="utf-8" standalone="no"?>
<!DOCTYPE svg PUBLIC "-//W3C//DTD SVG 1.1//EN"
  "http://www.w3.org/Graphics/SVG/1.1/DTD/svg11.dtd">
<svg xmlns:xlink="http://www.w3.org/1999/xlink" width="988.010625pt" height="482.905625pt" viewBox="0 0 988.010625 482.905625" xmlns="http://www.w3.org/2000/svg" version="1.1">
 <metadata>
  <rdf:RDF xmlns:dc="http://purl.org/dc/elements/1.1/" xmlns:cc="http://creativecommons.org/ns#" xmlns:rdf="http://www.w3.org/1999/02/22-rdf-syntax-ns#">
   <cc:Work>
    <dc:type rdf:resource="http://purl.org/dc/dcmitype/StillImage"/>
    <dc:date>2026-05-08T13:50:04.463088</dc:date>
    <dc:format>image/svg+xml</dc:format>
    <dc:creator>
     <cc:Agent>
      <dc:title>Matplotlib v3.10.6, https://matplotlib.org/</dc:title>
     </cc:Agent>
    </dc:creator>
   </cc:Work>
  </rdf:RDF>
 </metadata>
 <defs>
  <style type="text/css">*{stroke-linejoin: round; stroke-linecap: butt}</style>
 </defs>
 <g id="figure_1">
  <g id="patch_1">
   <path d="M 0 482.905625 
L 988.010625 482.905625 
L 988.010625 0 
L 0 0 
z
" style="fill: #ffffff"/>
  </g>
  <g id="axes_1">
   <g id="patch_2">
    <path d="M 67.460625 430.5 
L 980.810625 430.5 
L 980.810625 7.2 
L 67.460625 7.2 
z
" style="fill: #ffffff"/>
   </g>
   <g id="matplotlib.axis_1">
    <g id="xtick_1">
     <g id="text_1">
      <!-- 10 -->
      <g style="fill: #262626" transform="translate(134.551862 450.9575) scale(0.16 -0.16)">
       <defs>
        <path id="DejaVuSans-31" d="M 794 531 
L 1825 531 
L 1825 4091 
L 703 3866 
L 703 4441 
L 1819 4666 
L 2450 4666 
L 2450 531 
L 3481 531 
L 3481 0 
L 794 0 
L 794 531 
z
" transform="scale(0.015625)"/>
        <path id="DejaVuSans-30" d="M 2034 4250 
Q 1547 4250 1301 3770 
Q 1056 3291 1056 2328 
Q 1056 1369 1301 889 
Q 1547 409 2034 409 
Q 2525 409 2770 889 
Q 3016 1369 3016 2328 
Q 3016 3291 2770 3770 
Q 2525 4250 2034 4250 
z
M 2034 4750 
Q 2819 4750 3233 4129 
Q 3647 3509 3647 2328 
Q 3647 1150 3233 529 
Q 2819 -91 2034 -91 
Q 1250 -91 836 529 
Q 422 1150 422 2328 
Q 422 3509 836 4129 
Q 1250 4750 2034 4750 
z
" transform="scale(0.015625)"/>
       </defs>
       <use xlink:href="#DejaVuSans-31"/>
       <use xlink:href="#DejaVuSans-30" transform="translate(63.623047 0)"/>
      </g>
     </g>
    </g>
    <g id="xtick_2">
     <g id="text_2">
      <!-- 20 -->
      <g style="fill: #262626" transform="translate(293.464433 450.9575) scale(0.16 -0.16)">
       <defs>
        <path id="DejaVuSans-32" d="M 1228 531 
L 3431 531 
L 3431 0 
L 469 0 
L 469 531 
Q 828 903 1448 1529 
Q 2069 2156 2228 2338 
Q 2531 2678 2651 2914 
Q 2772 3150 2772 3378 
Q 2772 3750 2511 3984 
Q 2250 4219 1831 4219 
Q 1534 4219 1204 4116 
Q 875 4013 500 3803 
L 500 4441 
Q 881 4594 1212 4672 
Q 1544 4750 1819 4750 
Q 2544 4750 2975 4387 
Q 3406 4025 3406 3419 
Q 3406 3131 3298 2873 
Q 3191 2616 2906 2266 
Q 2828 2175 2409 1742 
Q 1991 1309 1228 531 
z
" transform="scale(0.015625)"/>
       </defs>
       <use xlink:href="#DejaVuSans-32"/>
       <use xlink:href="#DejaVuSans-30" transform="translate(63.623047 0)"/>
      </g>
     </g>
    </g>
    <g id="xtick_3">
     <g id="text_3">
      <!-- 30 -->
      <g style="fill: #262626" transform="translate(452.377004 450.9575) scale(0.16 -0.16)">
       <defs>
        <path id="DejaVuSans-33" d="M 2597 2516 
Q 3050 2419 3304 2112 
Q 3559 1806 3559 1356 
Q 3559 666 3084 287 
Q 2609 -91 1734 -91 
Q 1441 -91 1130 -33 
Q 819 25 488 141 
L 488 750 
Q 750 597 1062 519 
Q 1375 441 1716 441 
Q 2309 441 2620 675 
Q 2931 909 2931 1356 
Q 2931 1769 2642 2001 
Q 2353 2234 1838 2234 
L 1294 2234 
L 1294 2753 
L 1863 2753 
Q 2328 2753 2575 2939 
Q 2822 3125 2822 3475 
Q 2822 3834 2567 4026 
Q 2313 4219 1838 4219 
Q 1578 4219 1281 4162 
Q 984 4106 628 3988 
L 628 4550 
Q 988 4650 1302 4700 
Q 1616 4750 1894 4750 
Q 2613 4750 3031 4423 
Q 3450 4097 3450 3541 
Q 3450 3153 3228 2886 
Q 3006 2619 2597 2516 
z
" transform="scale(0.015625)"/>
       </defs>
       <use xlink:href="#DejaVuSans-33"/>
       <use xlink:href="#DejaVuSans-30" transform="translate(63.623047 0)"/>
      </g>
     </g>
    </g>
    <g id="xtick_4">
     <g id="text_4">
      <!-- 40 -->
      <g style="fill: #262626" transform="translate(611.289575 450.9575) scale(0.16 -0.16)">
       <defs>
        <path id="DejaVuSans-34" d="M 2419 4116 
L 825 1625 
L 2419 1625 
L 2419 4116 
z
M 2253 4666 
L 3047 4666 
L 3047 1625 
L 3713 1625 
L 3713 1100 
L 3047 1100 
L 3047 0 
L 2419 0 
L 2419 1100 
L 313 1100 
L 313 1709 
L 2253 4666 
z
" transform="scale(0.015625)"/>
       </defs>
       <use xlink:href="#DejaVuSans-34"/>
       <use xlink:href="#DejaVuSans-30" transform="translate(63.623047 0)"/>
      </g>
     </g>
    </g>
    <g id="xtick_5">
     <g id="text_5">
      <!-- 50 -->
      <g style="fill: #262626" transform="translate(770.202145 450.9575) scale(0.16 -0.16)">
       <defs>
        <path id="DejaVuSans-35" d="M 691 4666 
L 3169 4666 
L 3169 4134 
L 1269 4134 
L 1269 2991 
Q 1406 3038 1543 3061 
Q 1681 3084 1819 3084 
Q 2600 3084 3056 2656 
Q 3513 2228 3513 1497 
Q 3513 744 3044 326 
Q 2575 -91 1722 -91 
Q 1428 -91 1123 -41 
Q 819 9 494 109 
L 494 744 
Q 775 591 1075 516 
Q 1375 441 1709 441 
Q 2250 441 2565 725 
Q 2881 1009 2881 1497 
Q 2881 1984 2565 2268 
Q 2250 2553 1709 2553 
Q 1456 2553 1204 2497 
Q 953 2441 691 2322 
L 691 4666 
z
" transform="scale(0.015625)"/>
       </defs>
       <use xlink:href="#DejaVuSans-35"/>
       <use xlink:href="#DejaVuSans-30" transform="translate(63.623047 0)"/>
      </g>
     </g>
    </g>
    <g id="xtick_6">
     <g id="text_6">
      <!-- 60 -->
      <g style="fill: #262626" transform="translate(929.114716 450.9575) scale(0.16 -0.16)">
       <defs>
        <path id="DejaVuSans-36" d="M 2113 2584 
Q 1688 2584 1439 2293 
Q 1191 2003 1191 1497 
Q 1191 994 1439 701 
Q 1688 409 2113 409 
Q 2538 409 2786 701 
Q 3034 994 3034 1497 
Q 3034 2003 2786 2293 
Q 2538 2584 2113 2584 
z
M 3366 4563 
L 3366 3988 
Q 3128 4100 2886 4159 
Q 2644 4219 2406 4219 
Q 1781 4219 1451 3797 
Q 1122 3375 1075 2522 
Q 1259 2794 1537 2939 
Q 1816 3084 2150 3084 
Q 2853 3084 3261 2657 
Q 3669 2231 3669 1497 
Q 3669 778 3244 343 
Q 2819 -91 2113 -91 
Q 1303 -91 875 529 
Q 447 1150 447 2328 
Q 447 3434 972 4092 
Q 1497 4750 2381 4750 
Q 2619 4750 2861 4703 
Q 3103 4656 3366 4563 
z
" transform="scale(0.015625)"/>
       </defs>
       <use xlink:href="#DejaVuSans-36"/>
       <use xlink:href="#DejaVuSans-30" transform="translate(63.623047 0)"/>
      </g>
     </g>
    </g>
    <g id="text_7">
     <!-- Percent of Resources Collected -->
     <g style="fill: #262626" transform="translate(385.009688 471.962187) scale(0.18 -0.18)">
      <defs>
       <path id="DejaVuSans-50" d="M 1259 4147 
L 1259 2394 
L 2053 2394 
Q 2494 2394 2734 2622 
Q 2975 2850 2975 3272 
Q 2975 3691 2734 3919 
Q 2494 4147 2053 4147 
L 1259 4147 
z
M 628 4666 
L 2053 4666 
Q 2838 4666 3239 4311 
Q 3641 3956 3641 3272 
Q 3641 2581 3239 2228 
Q 2838 1875 2053 1875 
L 1259 1875 
L 1259 0 
L 628 0 
L 628 4666 
z
" transform="scale(0.015625)"/>
       <path id="DejaVuSans-65" d="M 3597 1894 
L 3597 1613 
L 953 1613 
Q 991 1019 1311 708 
Q 1631 397 2203 397 
Q 2534 397 2845 478 
Q 3156 559 3463 722 
L 3463 178 
Q 3153 47 2828 -22 
Q 2503 -91 2169 -91 
Q 1331 -91 842 396 
Q 353 884 353 1716 
Q 353 2575 817 3079 
Q 1281 3584 2069 3584 
Q 2775 3584 3186 3129 
Q 3597 2675 3597 1894 
z
M 3022 2063 
Q 3016 2534 2758 2815 
Q 2500 3097 2075 3097 
Q 1594 3097 1305 2825 
Q 1016 2553 972 2059 
L 3022 2063 
z
" transform="scale(0.015625)"/>
       <path id="DejaVuSans-72" d="M 2631 2963 
Q 2534 3019 2420 3045 
Q 2306 3072 2169 3072 
Q 1681 3072 1420 2755 
Q 1159 2438 1159 1844 
L 1159 0 
L 581 0 
L 581 3500 
L 1159 3500 
L 1159 2956 
Q 1341 3275 1631 3429 
Q 1922 3584 2338 3584 
Q 2397 3584 2469 3576 
Q 2541 3569 2628 3553 
L 2631 2963 
z
" transform="scale(0.015625)"/>
       <path id="DejaVuSans-63" d="M 3122 3366 
L 3122 2828 
Q 2878 2963 2633 3030 
Q 2388 3097 2138 3097 
Q 1578 3097 1268 2742 
Q 959 2388 959 1747 
Q 959 1106 1268 751 
Q 1578 397 2138 397 
Q 2388 397 2633 464 
Q 2878 531 3122 666 
L 3122 134 
Q 2881 22 2623 -34 
Q 2366 -91 2075 -91 
Q 1284 -91 818 406 
Q 353 903 353 1747 
Q 353 2603 823 3093 
Q 1294 3584 2113 3584 
Q 2378 3584 2631 3529 
Q 2884 3475 3122 3366 
z
" transform="scale(0.015625)"/>
       <path id="DejaVuSans-6e" d="M 3513 2113 
L 3513 0 
L 2938 0 
L 2938 2094 
Q 2938 2591 2744 2837 
Q 2550 3084 2163 3084 
Q 1697 3084 1428 2787 
Q 1159 2491 1159 1978 
L 1159 0 
L 581 0 
L 581 3500 
L 1159 3500 
L 1159 2956 
Q 1366 3272 1645 3428 
Q 1925 3584 2291 3584 
Q 2894 3584 3203 3211 
Q 3513 2838 3513 2113 
z
" transform="scale(0.015625)"/>
       <path id="DejaVuSans-74" d="M 1172 4494 
L 1172 3500 
L 2356 3500 
L 2356 3053 
L 1172 3053 
L 1172 1153 
Q 1172 725 1289 603 
Q 1406 481 1766 481 
L 2356 481 
L 2356 0 
L 1766 0 
Q 1100 0 847 248 
Q 594 497 594 1153 
L 594 3053 
L 172 3053 
L 172 3500 
L 594 3500 
L 594 4494 
L 1172 4494 
z
" transform="scale(0.015625)"/>
       <path id="DejaVuSans-20" transform="scale(0.015625)"/>
       <path id="DejaVuSans-6f" d="M 1959 3097 
Q 1497 3097 1228 2736 
Q 959 2375 959 1747 
Q 959 1119 1226 758 
Q 1494 397 1959 397 
Q 2419 397 2687 759 
Q 2956 1122 2956 1747 
Q 2956 2369 2687 2733 
Q 2419 3097 1959 3097 
z
M 1959 3584 
Q 2709 3584 3137 3096 
Q 3566 2609 3566 1747 
Q 3566 888 3137 398 
Q 2709 -91 1959 -91 
Q 1206 -91 779 398 
Q 353 888 353 1747 
Q 353 2609 779 3096 
Q 1206 3584 1959 3584 
z
" transform="scale(0.015625)"/>
       <path id="DejaVuSans-66" d="M 2375 4863 
L 2375 4384 
L 1825 4384 
Q 1516 4384 1395 4259 
Q 1275 4134 1275 3809 
L 1275 3500 
L 2222 3500 
L 2222 3053 
L 1275 3053 
L 1275 0 
L 697 0 
L 697 3053 
L 147 3053 
L 147 3500 
L 697 3500 
L 697 3744 
Q 697 4328 969 4595 
Q 1241 4863 1831 4863 
L 2375 4863 
z
" transform="scale(0.015625)"/>
       <path id="DejaVuSans-52" d="M 2841 2188 
Q 3044 2119 3236 1894 
Q 3428 1669 3622 1275 
L 4263 0 
L 3584 0 
L 2988 1197 
Q 2756 1666 2539 1819 
Q 2322 1972 1947 1972 
L 1259 1972 
L 1259 0 
L 628 0 
L 628 4666 
L 2053 4666 
Q 2853 4666 3247 4331 
Q 3641 3997 3641 3322 
Q 3641 2881 3436 2590 
Q 3231 2300 2841 2188 
z
M 1259 4147 
L 1259 2491 
L 2053 2491 
Q 2509 2491 2742 2702 
Q 2975 2913 2975 3322 
Q 2975 3731 2742 3939 
Q 2509 4147 2053 4147 
L 1259 4147 
z
" transform="scale(0.015625)"/>
       <path id="DejaVuSans-73" d="M 2834 3397 
L 2834 2853 
Q 2591 2978 2328 3040 
Q 2066 3103 1784 3103 
Q 1356 3103 1142 2972 
Q 928 2841 928 2578 
Q 928 2378 1081 2264 
Q 1234 2150 1697 2047 
L 1894 2003 
Q 2506 1872 2764 1633 
Q 3022 1394 3022 966 
Q 3022 478 2636 193 
Q 2250 -91 1575 -91 
Q 1294 -91 989 -36 
Q 684 19 347 128 
L 347 722 
Q 666 556 975 473 
Q 1284 391 1588 391 
Q 1994 391 2212 530 
Q 2431 669 2431 922 
Q 2431 1156 2273 1281 
Q 2116 1406 1581 1522 
L 1381 1569 
Q 847 1681 609 1914 
Q 372 2147 372 2553 
Q 372 3047 722 3315 
Q 1072 3584 1716 3584 
Q 2034 3584 2315 3537 
Q 2597 3491 2834 3397 
z
" transform="scale(0.015625)"/>
       <path id="DejaVuSans-75" d="M 544 1381 
L 544 3500 
L 1119 3500 
L 1119 1403 
Q 1119 906 1312 657 
Q 1506 409 1894 409 
Q 2359 409 2629 706 
Q 2900 1003 2900 1516 
L 2900 3500 
L 3475 3500 
L 3475 0 
L 2900 0 
L 2900 538 
Q 2691 219 2414 64 
Q 2138 -91 1772 -91 
Q 1169 -91 856 284 
Q 544 659 544 1381 
z
M 1991 3584 
L 1991 3584 
z
" transform="scale(0.015625)"/>
       <path id="DejaVuSans-43" d="M 4122 4306 
L 4122 3641 
Q 3803 3938 3442 4084 
Q 3081 4231 2675 4231 
Q 1875 4231 1450 3742 
Q 1025 3253 1025 2328 
Q 1025 1406 1450 917 
Q 1875 428 2675 428 
Q 3081 428 3442 575 
Q 3803 722 4122 1019 
L 4122 359 
Q 3791 134 3420 21 
Q 3050 -91 2638 -91 
Q 1578 -91 968 557 
Q 359 1206 359 2328 
Q 359 3453 968 4101 
Q 1578 4750 2638 4750 
Q 3056 4750 3426 4639 
Q 3797 4528 4122 4306 
z
" transform="scale(0.015625)"/>
       <path id="DejaVuSans-6c" d="M 603 4863 
L 1178 4863 
L 1178 0 
L 603 0 
L 603 4863 
z
" transform="scale(0.015625)"/>
       <path id="DejaVuSans-64" d="M 2906 2969 
L 2906 4863 
L 3481 4863 
L 3481 0 
L 2906 0 
L 2906 525 
Q 2725 213 2448 61 
Q 2172 -91 1784 -91 
Q 1150 -91 751 415 
Q 353 922 353 1747 
Q 353 2572 751 3078 
Q 1150 3584 1784 3584 
Q 2172 3584 2448 3432 
Q 2725 3281 2906 2969 
z
M 947 1747 
Q 947 1113 1208 752 
Q 1469 391 1925 391 
Q 2381 391 2643 752 
Q 2906 1113 2906 1747 
Q 2906 2381 2643 2742 
Q 2381 3103 1925 3103 
Q 1469 3103 1208 2742 
Q 947 2381 947 1747 
z
" transform="scale(0.015625)"/>
      </defs>
      <use xlink:href="#DejaVuSans-50"/>
      <use xlink:href="#DejaVuSans-65" transform="translate(56.677734 0)"/>
      <use xlink:href="#DejaVuSans-72" transform="translate(118.201172 0)"/>
      <use xlink:href="#DejaVuSans-63" transform="translate(157.064453 0)"/>
      <use xlink:href="#DejaVuSans-65" transform="translate(212.044922 0)"/>
      <use xlink:href="#DejaVuSans-6e" transform="translate(273.568359 0)"/>
      <use xlink:href="#DejaVuSans-74" transform="translate(336.947266 0)"/>
      <use xlink:href="#DejaVuSans-20" transform="translate(376.15625 0)"/>
      <use xlink:href="#DejaVuSans-6f" transform="translate(407.943359 0)"/>
      <use xlink:href="#DejaVuSans-66" transform="translate(469.125 0)"/>
      <use xlink:href="#DejaVuSans-20" transform="translate(504.330078 0)"/>
      <use xlink:href="#DejaVuSans-52" transform="translate(536.117188 0)"/>
      <use xlink:href="#DejaVuSans-65" transform="translate(601.099609 0)"/>
      <use xlink:href="#DejaVuSans-73" transform="translate(662.623047 0)"/>
      <use xlink:href="#DejaVuSans-6f" transform="translate(714.722656 0)"/>
      <use xlink:href="#DejaVuSans-75" transform="translate(775.904297 0)"/>
      <use xlink:href="#DejaVuSans-72" transform="translate(839.283203 0)"/>
      <use xlink:href="#DejaVuSans-63" transform="translate(878.146484 0)"/>
      <use xlink:href="#DejaVuSans-65" transform="translate(933.126953 0)"/>
      <use xlink:href="#DejaVuSans-73" transform="translate(994.650391 0)"/>
      <use xlink:href="#DejaVuSans-20" transform="translate(1046.75 0)"/>
      <use xlink:href="#DejaVuSans-43" transform="translate(1078.537109 0)"/>
      <use xlink:href="#DejaVuSans-6f" transform="translate(1148.361328 0)"/>
      <use xlink:href="#DejaVuSans-6c" transform="translate(1209.542969 0)"/>
      <use xlink:href="#DejaVuSans-6c" transform="translate(1237.326172 0)"/>
      <use xlink:href="#DejaVuSans-65" transform="translate(1265.109375 0)"/>
      <use xlink:href="#DejaVuSans-63" transform="translate(1326.632812 0)"/>
      <use xlink:href="#DejaVuSans-74" transform="translate(1381.613281 0)"/>
      <use xlink:href="#DejaVuSans-65" transform="translate(1420.822266 0)"/>
      <use xlink:href="#DejaVuSans-64" transform="translate(1482.345703 0)"/>
     </g>
    </g>
   </g>
   <g id="matplotlib.axis_2">
    <g id="ytick_1">
     <g id="line2d_1">
      <path d="M 67.460625 345.661763 
L 980.810625 345.661763 
" clip-path="url(#pe15c4f6d92)" style="fill: none; stroke: #cccccc; stroke-width: 0.8; stroke-linecap: round"/>
     </g>
     <g id="text_8">
      <!-- 200 -->
      <g style="fill: #262626" transform="translate(28.620625 351.740513) scale(0.16 -0.16)">
       <use xlink:href="#DejaVuSans-32"/>
       <use xlink:href="#DejaVuSans-30" transform="translate(63.623047 0)"/>
       <use xlink:href="#DejaVuSans-30" transform="translate(127.246094 0)"/>
      </g>
     </g>
    </g>
    <g id="ytick_2">
     <g id="line2d_2">
      <path d="M 67.460625 251.853071 
L 980.810625 251.853071 
" clip-path="url(#pe15c4f6d92)" style="fill: none; stroke: #cccccc; stroke-width: 0.8; stroke-linecap: round"/>
     </g>
     <g id="text_9">
      <!-- 400 -->
      <g style="fill: #262626" transform="translate(28.620625 257.931821) scale(0.16 -0.16)">
       <use xlink:href="#DejaVuSans-34"/>
       <use xlink:href="#DejaVuSans-30" transform="translate(63.623047 0)"/>
       <use xlink:href="#DejaVuSans-30" transform="translate(127.246094 0)"/>
      </g>
     </g>
    </g>
    <g id="ytick_3">
     <g id="line2d_3">
      <path d="M 67.460625 158.044378 
L 980.810625 158.044378 
" clip-path="url(#pe15c4f6d92)" style="fill: none; stroke: #cccccc; stroke-width: 0.8; stroke-linecap: round"/>
     </g>
     <g id="text_10">
      <!-- 600 -->
      <g style="fill: #262626" transform="translate(28.620625 164.123128) scale(0.16 -0.16)">
       <use xlink:href="#DejaVuSans-36"/>
       <use xlink:href="#DejaVuSans-30" transform="translate(63.623047 0)"/>
       <use xlink:href="#DejaVuSans-30" transform="translate(127.246094 0)"/>
      </g>
     </g>
    </g>
    <g id="ytick_4">
     <g id="line2d_4">
      <path d="M 67.460625 64.235685 
L 980.810625 64.235685 
" clip-path="url(#pe15c4f6d92)" style="fill: none; stroke: #cccccc; stroke-width: 0.8; stroke-linecap: round"/>
     </g>
     <g id="text_11">
      <!-- 800 -->
      <g style="fill: #262626" transform="translate(28.620625 70.314435) scale(0.16 -0.16)">
       <defs>
        <path id="DejaVuSans-38" d="M 2034 2216 
Q 1584 2216 1326 1975 
Q 1069 1734 1069 1313 
Q 1069 891 1326 650 
Q 1584 409 2034 409 
Q 2484 409 2743 651 
Q 3003 894 3003 1313 
Q 3003 1734 2745 1975 
Q 2488 2216 2034 2216 
z
M 1403 2484 
Q 997 2584 770 2862 
Q 544 3141 544 3541 
Q 544 4100 942 4425 
Q 1341 4750 2034 4750 
Q 2731 4750 3128 4425 
Q 3525 4100 3525 3541 
Q 3525 3141 3298 2862 
Q 3072 2584 2669 2484 
Q 3125 2378 3379 2068 
Q 3634 1759 3634 1313 
Q 3634 634 3220 271 
Q 2806 -91 2034 -91 
Q 1263 -91 848 271 
Q 434 634 434 1313 
Q 434 1759 690 2068 
Q 947 2378 1403 2484 
z
M 1172 3481 
Q 1172 3119 1398 2916 
Q 1625 2713 2034 2713 
Q 2441 2713 2670 2916 
Q 2900 3119 2900 3481 
Q 2900 3844 2670 4047 
Q 2441 4250 2034 4250 
Q 1625 4250 1398 4047 
Q 1172 3844 1172 3481 
z
" transform="scale(0.015625)"/>
       </defs>
       <use xlink:href="#DejaVuSans-38"/>
       <use xlink:href="#DejaVuSans-30" transform="translate(63.623047 0)"/>
       <use xlink:href="#DejaVuSans-30" transform="translate(127.246094 0)"/>
      </g>
     </g>
    </g>
    <g id="text_12">
     <!-- Time (seconds) -->
     <g style="fill: #262626" transform="translate(20.877187 287.541094) rotate(-90) scale(0.18 -0.18)">
      <defs>
       <path id="DejaVuSans-54" d="M -19 4666 
L 3928 4666 
L 3928 4134 
L 2272 4134 
L 2272 0 
L 1638 0 
L 1638 4134 
L -19 4134 
L -19 4666 
z
" transform="scale(0.015625)"/>
       <path id="DejaVuSans-69" d="M 603 3500 
L 1178 3500 
L 1178 0 
L 603 0 
L 603 3500 
z
M 603 4863 
L 1178 4863 
L 1178 4134 
L 603 4134 
L 603 4863 
z
" transform="scale(0.015625)"/>
       <path id="DejaVuSans-6d" d="M 3328 2828 
Q 3544 3216 3844 3400 
Q 4144 3584 4550 3584 
Q 5097 3584 5394 3201 
Q 5691 2819 5691 2113 
L 5691 0 
L 5113 0 
L 5113 2094 
Q 5113 2597 4934 2840 
Q 4756 3084 4391 3084 
Q 3944 3084 3684 2787 
Q 3425 2491 3425 1978 
L 3425 0 
L 2847 0 
L 2847 2094 
Q 2847 2600 2669 2842 
Q 2491 3084 2119 3084 
Q 1678 3084 1418 2786 
Q 1159 2488 1159 1978 
L 1159 0 
L 581 0 
L 581 3500 
L 1159 3500 
L 1159 2956 
Q 1356 3278 1631 3431 
Q 1906 3584 2284 3584 
Q 2666 3584 2933 3390 
Q 3200 3197 3328 2828 
z
" transform="scale(0.015625)"/>
       <path id="DejaVuSans-28" d="M 1984 4856 
Q 1566 4138 1362 3434 
Q 1159 2731 1159 2009 
Q 1159 1288 1364 580 
Q 1569 -128 1984 -844 
L 1484 -844 
Q 1016 -109 783 600 
Q 550 1309 550 2009 
Q 550 2706 781 3412 
Q 1013 4119 1484 4856 
L 1984 4856 
z
" transform="scale(0.015625)"/>
       <path id="DejaVuSans-29" d="M 513 4856 
L 1013 4856 
Q 1481 4119 1714 3412 
Q 1947 2706 1947 2009 
Q 1947 1309 1714 600 
Q 1481 -109 1013 -844 
L 513 -844 
Q 928 -128 1133 580 
Q 1338 1288 1338 2009 
Q 1338 2731 1133 3434 
Q 928 4138 513 4856 
z
" transform="scale(0.015625)"/>
      </defs>
      <use xlink:href="#DejaVuSans-54"/>
      <use xlink:href="#DejaVuSans-69" transform="translate(57.958984 0)"/>
      <use xlink:href="#DejaVuSans-6d" transform="translate(85.742188 0)"/>
      <use xlink:href="#DejaVuSans-65" transform="translate(183.154297 0)"/>
      <use xlink:href="#DejaVuSans-20" transform="translate(244.677734 0)"/>
      <use xlink:href="#DejaVuSans-28" transform="translate(276.464844 0)"/>
      <use xlink:href="#DejaVuSans-73" transform="translate(315.478516 0)"/>
      <use xlink:href="#DejaVuSans-65" transform="translate(367.578125 0)"/>
      <use xlink:href="#DejaVuSans-63" transform="translate(429.101562 0)"/>
      <use xlink:href="#DejaVuSans-6f" transform="translate(484.082031 0)"/>
      <use xlink:href="#DejaVuSans-6e" transform="translate(545.263672 0)"/>
      <use xlink:href="#DejaVuSans-64" transform="translate(608.642578 0)"/>
      <use xlink:href="#DejaVuSans-73" transform="translate(672.119141 0)"/>
      <use xlink:href="#DejaVuSans-29" transform="translate(724.21875 0)"/>
     </g>
    </g>
   </g>
   <g id="patch_3">
    <path d="M 144.731862 439.470456 
L 144.731862 439.470456 
L 144.731862 439.470456 
L 144.731862 439.470456 
z
" clip-path="url(#pe15c4f6d92)" style="fill: #5875a4; stroke: #464646; stroke-width: 1.1; stroke-linejoin: miter"/>
   </g>
   <g id="patch_4">
    <path d="M 144.731862 439.470456 
L 144.731862 439.470456 
L 144.731862 439.470456 
L 144.731862 439.470456 
z
" clip-path="url(#pe15c4f6d92)" style="fill: #ad483e; stroke: #464646; stroke-width: 1.1; stroke-linejoin: miter"/>
   </g>
   <g id="patch_5">
    <path d="M 108.976534 407.751392 
L 144.731862 407.751392 
L 144.731862 402.709175 
L 108.976534 402.709175 
L 108.976534 407.751392 
z
" clip-path="url(#pe15c4f6d92)" style="fill: #5875a4; stroke: #464646; stroke-width: 1.1; stroke-linejoin: miter"/>
   </g>
   <g id="line2d_5">
    <path d="M 126.854198 407.751392 
L 126.854198 414.845674 
" clip-path="url(#pe15c4f6d92)" style="fill: none; stroke: #464646; stroke-width: 1.1"/>
   </g>
   <g id="line2d_6">
    <path d="M 126.854198 402.709175 
L 126.854198 398.194631 
" clip-path="url(#pe15c4f6d92)" style="fill: none; stroke: #464646; stroke-width: 1.1"/>
   </g>
   <g id="line2d_7">
    <path d="M 117.915366 414.845674 
L 135.79303 414.845674 
" clip-path="url(#pe15c4f6d92)" style="fill: none; stroke: #464646; stroke-width: 1.1; stroke-linecap: round"/>
   </g>
   <g id="line2d_8">
    <path d="M 117.915366 398.194631 
L 135.79303 398.194631 
" clip-path="url(#pe15c4f6d92)" style="fill: none; stroke: #464646; stroke-width: 1.1; stroke-linecap: round"/>
   </g>
   <g id="line2d_9">
    <defs>
     <path id="mda69f436c0" d="M 0 1.5 
C 0.397805 1.5 0.77937 1.341951 1.06066 1.06066 
C 1.341951 0.77937 1.5 0.397805 1.5 0 
C 1.5 -0.397805 1.341951 -0.77937 1.06066 -1.06066 
C 0.77937 -1.341951 0.397805 -1.5 0 -1.5 
C -0.397805 -1.5 -0.77937 -1.341951 -1.06066 -1.06066 
C -1.341951 -0.77937 -1.5 -0.397805 -1.5 0 
C -1.5 0.397805 -1.341951 0.77937 -1.06066 1.06066 
C -0.77937 1.341951 -0.397805 1.5 0 1.5 
z
" style="stroke: #464646"/>
    </defs>
    <g clip-path="url(#pe15c4f6d92)">
     <use xlink:href="#mda69f436c0" x="126.854198" y="393.035153" style="fill-opacity: 0; stroke: #464646"/>
    </g>
   </g>
   <g id="patch_6">
    <path d="M 267.889105 361.785133 
L 303.644433 361.785133 
L 303.644433 349.765894 
L 267.889105 349.765894 
L 267.889105 361.785133 
z
" clip-path="url(#pe15c4f6d92)" style="fill: #5875a4; stroke: #464646; stroke-width: 1.1; stroke-linejoin: miter"/>
   </g>
   <g id="line2d_10">
    <path d="M 285.766769 361.785133 
L 285.766769 372.397241 
" clip-path="url(#pe15c4f6d92)" style="fill: none; stroke: #464646; stroke-width: 1.1"/>
   </g>
   <g id="line2d_11">
    <path d="M 285.766769 349.765894 
L 285.766769 340.502285 
" clip-path="url(#pe15c4f6d92)" style="fill: none; stroke: #464646; stroke-width: 1.1"/>
   </g>
   <g id="line2d_12">
    <path d="M 276.827937 372.397241 
L 294.705601 372.397241 
" clip-path="url(#pe15c4f6d92)" style="fill: none; stroke: #464646; stroke-width: 1.1; stroke-linecap: round"/>
   </g>
   <g id="line2d_13">
    <path d="M 276.827937 340.502285 
L 294.705601 340.502285 
" clip-path="url(#pe15c4f6d92)" style="fill: none; stroke: #464646; stroke-width: 1.1; stroke-linecap: round"/>
   </g>
   <g id="line2d_14">
    <g clip-path="url(#pe15c4f6d92)">
     <use xlink:href="#mda69f436c0" x="285.766769" y="170.004986" style="fill-opacity: 0; stroke: #464646"/>
     <use xlink:href="#mda69f436c0" x="285.766769" y="161.327682" style="fill-opacity: 0; stroke: #464646"/>
     <use xlink:href="#mda69f436c0" x="285.766769" y="213.156985" style="fill-opacity: 0; stroke: #464646"/>
    </g>
   </g>
   <g id="patch_7">
    <path d="M 426.801675 314.235851 
L 462.557004 314.235851 
L 462.557004 297.584808 
L 426.801675 297.584808 
L 426.801675 314.235851 
z
" clip-path="url(#pe15c4f6d92)" style="fill: #5875a4; stroke: #464646; stroke-width: 1.1; stroke-linejoin: miter"/>
   </g>
   <g id="line2d_15">
    <path d="M 444.67934 314.235851 
L 444.67934 330.183329 
" clip-path="url(#pe15c4f6d92)" style="fill: none; stroke: #464646; stroke-width: 1.1"/>
   </g>
   <g id="line2d_16">
    <path d="M 444.67934 297.584808 
L 444.67934 276.946896 
" clip-path="url(#pe15c4f6d92)" style="fill: none; stroke: #464646; stroke-width: 1.1"/>
   </g>
   <g id="line2d_17">
    <path d="M 435.740508 330.183329 
L 453.618172 330.183329 
" clip-path="url(#pe15c4f6d92)" style="fill: none; stroke: #464646; stroke-width: 1.1; stroke-linecap: round"/>
   </g>
   <g id="line2d_18">
    <path d="M 435.740508 276.946896 
L 453.618172 276.946896 
" clip-path="url(#pe15c4f6d92)" style="fill: none; stroke: #464646; stroke-width: 1.1; stroke-linecap: round"/>
   </g>
   <g id="line2d_19">
    <g clip-path="url(#pe15c4f6d92)">
     <use xlink:href="#mda69f436c0" x="444.67934" y="154.526552" style="fill-opacity: 0; stroke: #464646"/>
    </g>
   </g>
   <g id="patch_8">
    <path d="M 585.714246 253.963766 
L 621.469575 253.963766 
L 621.469575 235.905593 
L 585.714246 235.905593 
L 585.714246 253.963766 
z
" clip-path="url(#pe15c4f6d92)" style="fill: #5875a4; stroke: #464646; stroke-width: 1.1; stroke-linejoin: miter"/>
   </g>
   <g id="line2d_20">
    <path d="M 603.59191 253.963766 
L 603.59191 271.318374 
" clip-path="url(#pe15c4f6d92)" style="fill: none; stroke: #464646; stroke-width: 1.1"/>
   </g>
   <g id="line2d_21">
    <path d="M 603.59191 235.905593 
L 603.59191 210.811768 
" clip-path="url(#pe15c4f6d92)" style="fill: none; stroke: #464646; stroke-width: 1.1"/>
   </g>
   <g id="line2d_22">
    <path d="M 594.653078 271.318374 
L 612.530742 271.318374 
" clip-path="url(#pe15c4f6d92)" style="fill: none; stroke: #464646; stroke-width: 1.1; stroke-linecap: round"/>
   </g>
   <g id="line2d_23">
    <path d="M 594.653078 210.811768 
L 612.530742 210.811768 
" clip-path="url(#pe15c4f6d92)" style="fill: none; stroke: #464646; stroke-width: 1.1; stroke-linecap: round"/>
   </g>
   <g id="line2d_24">
    <g clip-path="url(#pe15c4f6d92)">
     <use xlink:href="#mda69f436c0" x="603.59191" y="284.451591" style="fill-opacity: 0; stroke: #464646"/>
     <use xlink:href="#mda69f436c0" x="603.59191" y="206.355855" style="fill-opacity: 0; stroke: #464646"/>
     <use xlink:href="#mda69f436c0" x="603.59191" y="183.138203" style="fill-opacity: 0; stroke: #464646"/>
     <use xlink:href="#mda69f436c0" x="603.59191" y="129.432727" style="fill-opacity: 0; stroke: #464646"/>
    </g>
   </g>
   <g id="patch_9">
    <path d="M 744.626817 188.649464 
L 780.382145 188.649464 
L 780.382145 164.141943 
L 744.626817 164.141943 
L 744.626817 188.649464 
z
" clip-path="url(#pe15c4f6d92)" style="fill: #5875a4; stroke: #464646; stroke-width: 1.1; stroke-linejoin: miter"/>
   </g>
   <g id="line2d_25">
    <path d="M 762.504481 188.649464 
L 762.504481 223.710463 
" clip-path="url(#pe15c4f6d92)" style="fill: none; stroke: #464646; stroke-width: 1.1"/>
   </g>
   <g id="line2d_26">
    <path d="M 762.504481 164.141943 
L 762.504481 136.233857 
" clip-path="url(#pe15c4f6d92)" style="fill: none; stroke: #464646; stroke-width: 1.1"/>
   </g>
   <g id="line2d_27">
    <path d="M 753.565649 223.710463 
L 771.443313 223.710463 
" clip-path="url(#pe15c4f6d92)" style="fill: none; stroke: #464646; stroke-width: 1.1; stroke-linecap: round"/>
   </g>
   <g id="line2d_28">
    <path d="M 753.565649 136.233857 
L 771.443313 136.233857 
" clip-path="url(#pe15c4f6d92)" style="fill: none; stroke: #464646; stroke-width: 1.1; stroke-linecap: round"/>
   </g>
   <g id="line2d_29"/>
   <g id="patch_10">
    <path d="M 903.539388 124.976814 
L 939.294716 124.976814 
L 939.294716 106.684119 
L 903.539388 106.684119 
L 903.539388 124.976814 
z
" clip-path="url(#pe15c4f6d92)" style="fill: #5875a4; stroke: #464646; stroke-width: 1.1; stroke-linejoin: miter"/>
   </g>
   <g id="line2d_30">
    <path d="M 921.417052 124.976814 
L 921.417052 142.0969 
" clip-path="url(#pe15c4f6d92)" style="fill: none; stroke: #464646; stroke-width: 1.1"/>
   </g>
   <g id="line2d_31">
    <path d="M 921.417052 106.684119 
L 921.417052 101.759162 
" clip-path="url(#pe15c4f6d92)" style="fill: none; stroke: #464646; stroke-width: 1.1"/>
   </g>
   <g id="line2d_32">
    <path d="M 912.47822 142.0969 
L 930.355884 142.0969 
" clip-path="url(#pe15c4f6d92)" style="fill: none; stroke: #464646; stroke-width: 1.1; stroke-linecap: round"/>
   </g>
   <g id="line2d_33">
    <path d="M 912.47822 101.759162 
L 930.355884 101.759162 
" clip-path="url(#pe15c4f6d92)" style="fill: none; stroke: #464646; stroke-width: 1.1; stroke-linecap: round"/>
   </g>
   <g id="line2d_34"/>
   <g id="patch_11">
    <path d="M 144.731862 401.243414 
L 180.487191 401.243414 
L 180.487191 391.510762 
L 144.731862 391.510762 
L 144.731862 401.243414 
z
" clip-path="url(#pe15c4f6d92)" style="fill: #ad483e; stroke: #464646; stroke-width: 1.1; stroke-linejoin: miter"/>
   </g>
   <g id="line2d_35">
    <path d="M 162.609527 401.243414 
L 162.609527 408.748109 
" clip-path="url(#pe15c4f6d92)" style="fill: none; stroke: #464646; stroke-width: 1.1"/>
   </g>
   <g id="line2d_36">
    <path d="M 162.609527 391.510762 
L 162.609527 385.530458 
" clip-path="url(#pe15c4f6d92)" style="fill: none; stroke: #464646; stroke-width: 1.1"/>
   </g>
   <g id="line2d_37">
    <path d="M 153.670695 408.748109 
L 171.548359 408.748109 
" clip-path="url(#pe15c4f6d92)" style="fill: none; stroke: #464646; stroke-width: 1.1; stroke-linecap: round"/>
   </g>
   <g id="line2d_38">
    <path d="M 153.670695 385.530458 
L 171.548359 385.530458 
" clip-path="url(#pe15c4f6d92)" style="fill: none; stroke: #464646; stroke-width: 1.1; stroke-linecap: round"/>
   </g>
   <g id="line2d_39">
    <g clip-path="url(#pe15c4f6d92)">
     <use xlink:href="#mda69f436c0" x="162.609527" y="366.768719" style="fill-opacity: 0; stroke: #464646"/>
    </g>
   </g>
   <g id="patch_12">
    <path d="M 303.644433 338.860633 
L 339.399762 338.860633 
L 339.399762 327.60359 
L 303.644433 327.60359 
L 303.644433 338.860633 
z
" clip-path="url(#pe15c4f6d92)" style="fill: #ad483e; stroke: #464646; stroke-width: 1.1; stroke-linejoin: miter"/>
   </g>
   <g id="line2d_40">
    <path d="M 321.522097 338.860633 
L 321.522097 355.746198 
" clip-path="url(#pe15c4f6d92)" style="fill: none; stroke: #464646; stroke-width: 1.1"/>
   </g>
   <g id="line2d_41">
    <path d="M 321.522097 327.60359 
L 321.522097 315.642982 
" clip-path="url(#pe15c4f6d92)" style="fill: none; stroke: #464646; stroke-width: 1.1"/>
   </g>
   <g id="line2d_42">
    <path d="M 312.583265 355.746198 
L 330.460929 355.746198 
" clip-path="url(#pe15c4f6d92)" style="fill: none; stroke: #464646; stroke-width: 1.1; stroke-linecap: round"/>
   </g>
   <g id="line2d_43">
    <path d="M 312.583265 315.642982 
L 330.460929 315.642982 
" clip-path="url(#pe15c4f6d92)" style="fill: none; stroke: #464646; stroke-width: 1.1; stroke-linecap: round"/>
   </g>
   <g id="line2d_44">
    <g clip-path="url(#pe15c4f6d92)">
     <use xlink:href="#mda69f436c0" x="321.522097" y="144.442118" style="fill-opacity: 0; stroke: #464646"/>
     <use xlink:href="#mda69f436c0" x="321.522097" y="156.168204" style="fill-opacity: 0; stroke: #464646"/>
     <use xlink:href="#mda69f436c0" x="321.522097" y="205.183246" style="fill-opacity: 0; stroke: #464646"/>
     <use xlink:href="#mda69f436c0" x="321.522097" y="298.757417" style="fill-opacity: 0; stroke: #464646"/>
     <use xlink:href="#mda69f436c0" x="321.522097" y="253.025679" style="fill-opacity: 0; stroke: #464646"/>
    </g>
   </g>
   <g id="patch_13">
    <path d="M 462.557004 277.240048 
L 498.312332 277.240048 
L 498.312332 263.286005 
L 462.557004 263.286005 
L 462.557004 277.240048 
z
" clip-path="url(#pe15c4f6d92)" style="fill: #ad483e; stroke: #464646; stroke-width: 1.1; stroke-linejoin: miter"/>
   </g>
   <g id="line2d_45">
    <path d="M 480.434668 277.240048 
L 480.434668 296.646722 
" clip-path="url(#pe15c4f6d92)" style="fill: none; stroke: #464646; stroke-width: 1.1"/>
   </g>
   <g id="line2d_46">
    <path d="M 480.434668 263.286005 
L 480.434668 245.05194 
" clip-path="url(#pe15c4f6d92)" style="fill: none; stroke: #464646; stroke-width: 1.1"/>
   </g>
   <g id="line2d_47">
    <path d="M 471.495836 296.646722 
L 489.3735 296.646722 
" clip-path="url(#pe15c4f6d92)" style="fill: none; stroke: #464646; stroke-width: 1.1; stroke-linecap: round"/>
   </g>
   <g id="line2d_48">
    <path d="M 471.495836 245.05194 
L 489.3735 245.05194 
" clip-path="url(#pe15c4f6d92)" style="fill: none; stroke: #464646; stroke-width: 1.1; stroke-linecap: round"/>
   </g>
   <g id="line2d_49">
    <g clip-path="url(#pe15c4f6d92)">
     <use xlink:href="#mda69f436c0" x="480.434668" y="306.027591" style="fill-opacity: 0; stroke: #464646"/>
     <use xlink:href="#mda69f436c0" x="480.434668" y="162.265769" style="fill-opacity: 0; stroke: #464646"/>
    </g>
   </g>
   <g id="patch_14">
    <path d="M 621.469575 211.691224 
L 657.224903 211.691224 
L 657.224903 195.509225 
L 621.469575 195.509225 
L 621.469575 211.691224 
z
" clip-path="url(#pe15c4f6d92)" style="fill: #ad483e; stroke: #464646; stroke-width: 1.1; stroke-linejoin: miter"/>
   </g>
   <g id="line2d_50">
    <path d="M 639.347239 211.691224 
L 639.347239 227.931854 
" clip-path="url(#pe15c4f6d92)" style="fill: none; stroke: #464646; stroke-width: 1.1"/>
   </g>
   <g id="line2d_51">
    <path d="M 639.347239 195.509225 
L 639.347239 178.213247 
" clip-path="url(#pe15c4f6d92)" style="fill: none; stroke: #464646; stroke-width: 1.1"/>
   </g>
   <g id="line2d_52">
    <path d="M 630.408407 227.931854 
L 648.286071 227.931854 
" clip-path="url(#pe15c4f6d92)" style="fill: none; stroke: #464646; stroke-width: 1.1; stroke-linecap: round"/>
   </g>
   <g id="line2d_53">
    <path d="M 630.408407 178.213247 
L 648.286071 178.213247 
" clip-path="url(#pe15c4f6d92)" style="fill: none; stroke: #464646; stroke-width: 1.1; stroke-linecap: round"/>
   </g>
   <g id="line2d_54">
    <g clip-path="url(#pe15c4f6d92)">
     <use xlink:href="#mda69f436c0" x="639.347239" y="251.384027" style="fill-opacity: 0; stroke: #464646"/>
     <use xlink:href="#mda69f436c0" x="639.347239" y="169.770465" style="fill-opacity: 0; stroke: #464646"/>
     <use xlink:href="#mda69f436c0" x="639.347239" y="166.721682" style="fill-opacity: 0; stroke: #464646"/>
     <use xlink:href="#mda69f436c0" x="639.347239" y="158.2789" style="fill-opacity: 0; stroke: #464646"/>
     <use xlink:href="#mda69f436c0" x="639.347239" y="144.676639" style="fill-opacity: 0; stroke: #464646"/>
    </g>
   </g>
   <g id="patch_15">
    <path d="M 780.382145 137.99277 
L 816.137474 137.99277 
L 816.137474 113.485249 
L 780.382145 113.485249 
L 780.382145 137.99277 
z
" clip-path="url(#pe15c4f6d92)" style="fill: #ad483e; stroke: #464646; stroke-width: 1.1; stroke-linejoin: miter"/>
   </g>
   <g id="line2d_55">
    <path d="M 798.259809 137.99277 
L 798.259809 150.070639 
" clip-path="url(#pe15c4f6d92)" style="fill: none; stroke: #464646; stroke-width: 1.1"/>
   </g>
   <g id="line2d_56">
    <path d="M 798.259809 113.485249 
L 798.259809 101.759162 
" clip-path="url(#pe15c4f6d92)" style="fill: none; stroke: #464646; stroke-width: 1.1"/>
   </g>
   <g id="line2d_57">
    <path d="M 789.320977 150.070639 
L 807.198642 150.070639 
" clip-path="url(#pe15c4f6d92)" style="fill: none; stroke: #464646; stroke-width: 1.1; stroke-linecap: round"/>
   </g>
   <g id="line2d_58">
    <path d="M 789.320977 101.759162 
L 807.198642 101.759162 
" clip-path="url(#pe15c4f6d92)" style="fill: none; stroke: #464646; stroke-width: 1.1; stroke-linecap: round"/>
   </g>
   <g id="line2d_59">
    <g clip-path="url(#pe15c4f6d92)">
     <use xlink:href="#mda69f436c0" x="798.259809" y="179.151334" style="fill-opacity: 0; stroke: #464646"/>
    </g>
   </g>
   <g id="line2d_60">
    <path d="M 120.894977 352.799819 
L 120.894977 347.720219 
L 144.731862 347.720219 
L 144.731862 352.799819 
" style="fill: none; stroke: #000000; stroke-width: 0.9; stroke-linecap: round"/>
   </g>
   <g id="line2d_61">
    <path d="M 279.807548 130.473218 
L 279.807548 125.393618 
L 303.644433 125.393618 
L 303.644433 130.473218 
" style="fill: none; stroke: #000000; stroke-width: 0.9; stroke-linecap: round"/>
   </g>
   <g id="line2d_62">
    <path d="M 438.720118 140.557652 
L 438.720118 135.478052 
L 462.557004 135.478052 
L 462.557004 140.557652 
" style="fill: none; stroke: #000000; stroke-width: 0.9; stroke-linecap: round"/>
   </g>
   <g id="line2d_63">
    <path d="M 597.632689 115.463827 
L 597.632689 110.384227 
L 621.469575 110.384227 
L 621.469575 115.463827 
" style="fill: none; stroke: #000000; stroke-width: 0.9; stroke-linecap: round"/>
   </g>
   <g id="line2d_64">
    <path d="M 756.54526 87.790262 
L 756.54526 82.710662 
L 780.382145 82.710662 
L 780.382145 87.790262 
" style="fill: none; stroke: #000000; stroke-width: 0.9; stroke-linecap: round"/>
   </g>
   <g id="line2d_65">
    <path d="M 915.45783 87.790262 
L 915.45783 82.710662 
L 939.294716 82.710662 
L 939.294716 87.790262 
" style="fill: none; stroke: #000000; stroke-width: 0.9; stroke-linecap: round"/>
   </g>
   <g id="line2d_66">
    <path d="M 108.976534 404.995762 
L 144.731862 404.995762 
" clip-path="url(#pe15c4f6d92)" style="fill: none; stroke: #464646; stroke-width: 1.1"/>
   </g>
   <g id="line2d_67">
    <path d="M 267.889105 356.801546 
L 303.644433 356.801546 
" clip-path="url(#pe15c4f6d92)" style="fill: none; stroke: #464646; stroke-width: 1.1"/>
   </g>
   <g id="line2d_68">
    <path d="M 426.801675 303.916895 
L 462.557004 303.916895 
" clip-path="url(#pe15c4f6d92)" style="fill: none; stroke: #464646; stroke-width: 1.1"/>
   </g>
   <g id="line2d_69">
    <path d="M 585.714246 245.755506 
L 621.469575 245.755506 
" clip-path="url(#pe15c4f6d92)" style="fill: none; stroke: #464646; stroke-width: 1.1"/>
   </g>
   <g id="line2d_70">
    <path d="M 744.626817 175.398986 
L 780.382145 175.398986 
" clip-path="url(#pe15c4f6d92)" style="fill: none; stroke: #464646; stroke-width: 1.1"/>
   </g>
   <g id="line2d_71">
    <path d="M 903.539388 114.892379 
L 939.294716 114.892379 
" clip-path="url(#pe15c4f6d92)" style="fill: none; stroke: #464646; stroke-width: 1.1"/>
   </g>
   <g id="line2d_72">
    <path d="M 144.731862 397.373805 
L 180.487191 397.373805 
" clip-path="url(#pe15c4f6d92)" style="fill: none; stroke: #464646; stroke-width: 1.1"/>
   </g>
   <g id="line2d_73">
    <path d="M 303.644433 333.466633 
L 339.399762 333.466633 
" clip-path="url(#pe15c4f6d92)" style="fill: none; stroke: #464646; stroke-width: 1.1"/>
   </g>
   <g id="line2d_74">
    <path d="M 462.557004 270.145766 
L 498.312332 270.145766 
" clip-path="url(#pe15c4f6d92)" style="fill: none; stroke: #464646; stroke-width: 1.1"/>
   </g>
   <g id="line2d_75">
    <path d="M 621.469575 202.95529 
L 657.224903 202.95529 
" clip-path="url(#pe15c4f6d92)" style="fill: none; stroke: #464646; stroke-width: 1.1"/>
   </g>
   <g id="line2d_76">
    <path d="M 780.382145 125.211335 
L 816.137474 125.211335 
" clip-path="url(#pe15c4f6d92)" style="fill: none; stroke: #464646; stroke-width: 1.1"/>
   </g>
   <g id="patch_16">
    <path d="M 67.460625 430.5 
L 67.460625 7.2 
" style="fill: none; stroke: #cccccc; stroke-linejoin: miter; stroke-linecap: square"/>
   </g>
   <g id="patch_17">
    <path d="M 980.810625 430.5 
L 980.810625 7.2 
" style="fill: none; stroke: #cccccc; stroke-linejoin: miter; stroke-linecap: square"/>
   </g>
   <g id="patch_18">
    <path d="M 67.460625 430.5 
L 980.810625 430.5 
" style="fill: none; stroke: #cccccc; stroke-linejoin: miter; stroke-linecap: square"/>
   </g>
   <g id="patch_19">
    <path d="M 67.460625 7.2 
L 980.810625 7.2 
" style="fill: none; stroke: #cccccc; stroke-linejoin: miter; stroke-linecap: square"/>
   </g>
   <g id="text_13">
    <!-- *** -->
    <g transform="translate(126.81342 345.294529) scale(0.08 -0.08)">
     <defs>
      <path id="DejaVuSans-2a" d="M 3009 3897 
L 1888 3291 
L 3009 2681 
L 2828 2375 
L 1778 3009 
L 1778 1831 
L 1422 1831 
L 1422 3009 
L 372 2375 
L 191 2681 
L 1313 3291 
L 191 3897 
L 372 4206 
L 1422 3572 
L 1422 4750 
L 1778 4750 
L 1778 3572 
L 2828 4206 
L 3009 3897 
z
" transform="scale(0.015625)"/>
     </defs>
     <use xlink:href="#DejaVuSans-2a"/>
     <use xlink:href="#DejaVuSans-2a" transform="translate(50 0)"/>
     <use xlink:href="#DejaVuSans-2a" transform="translate(100 0)"/>
    </g>
   </g>
   <g id="text_14">
    <!-- ** -->
    <g transform="translate(287.72599 122.967928) scale(0.08 -0.08)">
     <use xlink:href="#DejaVuSans-2a"/>
     <use xlink:href="#DejaVuSans-2a" transform="translate(50 0)"/>
    </g>
   </g>
   <g id="text_15">
    <!-- *** -->
    <g transform="translate(444.638561 133.052362) scale(0.08 -0.08)">
     <use xlink:href="#DejaVuSans-2a"/>
     <use xlink:href="#DejaVuSans-2a" transform="translate(50 0)"/>
     <use xlink:href="#DejaVuSans-2a" transform="translate(100 0)"/>
    </g>
   </g>
   <g id="text_16">
    <!-- *** -->
    <g transform="translate(603.551132 107.958537) scale(0.08 -0.08)">
     <use xlink:href="#DejaVuSans-2a"/>
     <use xlink:href="#DejaVuSans-2a" transform="translate(50 0)"/>
     <use xlink:href="#DejaVuSans-2a" transform="translate(100 0)"/>
    </g>
   </g>
   <g id="text_17">
    <!-- *** -->
    <g transform="translate(762.463702 80.284972) scale(0.08 -0.08)">
     <use xlink:href="#DejaVuSans-2a"/>
     <use xlink:href="#DejaVuSans-2a" transform="translate(50 0)"/>
     <use xlink:href="#DejaVuSans-2a" transform="translate(100 0)"/>
    </g>
   </g>
   <g id="text_18">
    <!-- - -->
    <g transform="translate(925.933148 80.284972) scale(0.08 -0.08)">
     <defs>
      <path id="DejaVuSans-2d" d="M 313 2009 
L 1997 2009 
L 1997 1497 
L 313 1497 
L 313 2009 
z
" transform="scale(0.015625)"/>
     </defs>
     <use xlink:href="#DejaVuSans-2d"/>
    </g>
   </g>
   <g id="legend_1">
    <g id="patch_20">
     <path d="M 78.660625 66.97 
L 170.558125 66.97 
Q 173.758125 66.97 173.758125 63.77 
L 173.758125 18.4 
Q 173.758125 15.2 170.558125 15.2 
L 78.660625 15.2 
Q 75.460625 15.2 75.460625 18.4 
L 75.460625 63.77 
Q 75.460625 66.97 78.660625 66.97 
z
" style="fill: #ffffff; opacity: 0.8; stroke: #cccccc; stroke-width: 0.8; stroke-linejoin: miter"/>
    </g>
    <g id="patch_21">
     <path d="M 81.860625 33.7575 
L 113.860625 33.7575 
L 113.860625 22.5575 
L 81.860625 22.5575 
z
" style="fill: #5875a4; stroke: #464646; stroke-width: 1.1; stroke-linejoin: miter"/>
    </g>
    <g id="text_19">
     <!-- CPFA -->
     <g style="fill: #262626" transform="translate(126.660625 33.7575) scale(0.16 -0.16)">
      <defs>
       <path id="DejaVuSans-46" d="M 628 4666 
L 3309 4666 
L 3309 4134 
L 1259 4134 
L 1259 2759 
L 3109 2759 
L 3109 2228 
L 1259 2228 
L 1259 0 
L 628 0 
L 628 4666 
z
" transform="scale(0.015625)"/>
       <path id="DejaVuSans-41" d="M 2188 4044 
L 1331 1722 
L 3047 1722 
L 2188 4044 
z
M 1831 4666 
L 2547 4666 
L 4325 0 
L 3669 0 
L 3244 1197 
L 1141 1197 
L 716 0 
L 50 0 
L 1831 4666 
z
" transform="scale(0.015625)"/>
      </defs>
      <use xlink:href="#DejaVuSans-43"/>
      <use xlink:href="#DejaVuSans-50" transform="translate(69.824219 0)"/>
      <use xlink:href="#DejaVuSans-46" transform="translate(130.126953 0)"/>
      <use xlink:href="#DejaVuSans-41" transform="translate(178.521484 0)"/>
     </g>
    </g>
    <g id="patch_22">
     <path d="M 81.860625 57.2425 
L 113.860625 57.2425 
L 113.860625 46.0425 
L 81.860625 46.0425 
z
" style="fill: #ad483e; stroke: #464646; stroke-width: 1.1; stroke-linejoin: miter"/>
    </g>
    <g id="text_20">
     <!-- PPSA -->
     <g style="fill: #262626" transform="translate(126.660625 57.2425) scale(0.16 -0.16)">
      <defs>
       <path id="DejaVuSans-53" d="M 3425 4513 
L 3425 3897 
Q 3066 4069 2747 4153 
Q 2428 4238 2131 4238 
Q 1616 4238 1336 4038 
Q 1056 3838 1056 3469 
Q 1056 3159 1242 3001 
Q 1428 2844 1947 2747 
L 2328 2669 
Q 3034 2534 3370 2195 
Q 3706 1856 3706 1288 
Q 3706 609 3251 259 
Q 2797 -91 1919 -91 
Q 1588 -91 1214 -16 
Q 841 59 441 206 
L 441 856 
Q 825 641 1194 531 
Q 1563 422 1919 422 
Q 2459 422 2753 634 
Q 3047 847 3047 1241 
Q 3047 1584 2836 1778 
Q 2625 1972 2144 2069 
L 1759 2144 
Q 1053 2284 737 2584 
Q 422 2884 422 3419 
Q 422 4038 858 4394 
Q 1294 4750 2059 4750 
Q 2388 4750 2728 4690 
Q 3069 4631 3425 4513 
z
" transform="scale(0.015625)"/>
      </defs>
      <use xlink:href="#DejaVuSans-50"/>
      <use xlink:href="#DejaVuSans-50" transform="translate(60.302734 0)"/>
      <use xlink:href="#DejaVuSans-53" transform="translate(120.605469 0)"/>
      <use xlink:href="#DejaVuSans-41" transform="translate(185.957031 0)"/>
     </g>
    </g>
   </g>
  </g>
 </g>
 <defs>
  <clipPath id="pe15c4f6d92">
   <rect x="67.460625" y="7.2" width="913.35" height="423.3"/>
  </clipPath>
 </defs>
</svg>
