<?xml version="1.0" encoding="utf-8" standalone="no"?>
<!DOCTYPE svg PUBLIC "-//W3C//DTD SVG 1.1//EN"
  "http://www.w3.org/Graphics/SVG/1.1/DTD/svg11.dtd">
<svg xmlns:xlink="http://www.w3.org/1999/xlink" width="987.830625pt" height="485.065625pt" viewBox="0 0 987.830625 485.065625" xmlns="http://www.w3.org/2000/svg" version="1.1">
 <metadata>
  <rdf:RDF xmlns:dc="http://purl.org/dc/elements/1.1/" xmlns:cc="http://creativecommons.org/ns#" xmlns:rdf="http://www.w3.org/1999/02/22-rdf-syntax-ns#">
   <cc:Work>
    <dc:type rdf:resource="http://purl.org/dc/dcmitype/StillImage"/>
    <dc:date>2026-05-11T00:06:04.411757</dc:date>
    <dc:format>image/svg+xml</dc:format>
    <dc:creator>
     <cc:Agent>
      <dc:title>Matplotlib v3.10.9, https://matplotlib.org/</dc:title>
     </cc:Agent>
    </dc:creator>
   </cc:Work>
  </rdf:RDF>
 </metadata>
 <defs>
  <style type="text/css">*{stroke-linejoin: round; stroke-linecap: butt}</style>
 </defs>
 <g id="figure_1">
  <g id="patch_1">
   <path d="M 0 485.065625 
L 987.830625 485.065625 
L 987.830625 0 
L 0 0 
z
" style="fill: #ffffff"/>
  </g>
  <g id="axes_1">
   <g id="patch_2">
    <path d="M 67.460625 432.66 
L 980.630625 432.66 
L 980.630625 7.2 
L 67.460625 7.2 
z
" style="fill: #ffffff"/>
   </g>
   <g id="matplotlib.axis_1">
    <g id="xtick_1">
     <g id="text_1">
      <!-- 10 -->
      <g style="fill: #262626" transform="translate(127.747232 453.1175) scale(0.16 -0.16)">
       <defs>
        <path id="DejaVuSans-31" d="M 794 531 
L 1825 531 
L 1825 4091 
L 703 3866 
L 703 4441 
L 1819 4666 
L 2450 4666 
L 2450 531 
L 3481 531 
L 3481 0 
L 794 0 
L 794 531 
z
" transform="scale(0.015625)"/>
        <path id="DejaVuSans-30" d="M 2034 4250 
Q 1547 4250 1301 3770 
Q 1056 3291 1056 2328 
Q 1056 1369 1301 889 
Q 1547 409 2034 409 
Q 2525 409 2770 889 
Q 3016 1369 3016 2328 
Q 3016 3291 2770 3770 
Q 2525 4250 2034 4250 
z
M 2034 4750 
Q 2819 4750 3233 4129 
Q 3647 3509 3647 2328 
Q 3647 1150 3233 529 
Q 2819 -91 2034 -91 
Q 1250 -91 836 529 
Q 422 1150 422 2328 
Q 422 3509 836 4129 
Q 1250 4750 2034 4750 
z
" transform="scale(0.015625)"/>
       </defs>
       <use xlink:href="#DejaVuSans-31"/>
       <use xlink:href="#DejaVuSans-30" transform="translate(63.623047 0)"/>
      </g>
     </g>
    </g>
    <g id="xtick_2">
     <g id="text_2">
      <!-- 20 -->
      <g style="fill: #262626" transform="translate(256.453363 453.1175) scale(0.16 -0.16)">
       <defs>
        <path id="DejaVuSans-32" d="M 1228 531 
L 3431 531 
L 3431 0 
L 469 0 
L 469 531 
Q 828 903 1448 1529 
Q 2069 2156 2228 2338 
Q 2531 2678 2651 2914 
Q 2772 3150 2772 3378 
Q 2772 3750 2511 3984 
Q 2250 4219 1831 4219 
Q 1534 4219 1204 4116 
Q 875 4013 500 3803 
L 500 4441 
Q 881 4594 1212 4672 
Q 1544 4750 1819 4750 
Q 2544 4750 2975 4387 
Q 3406 4025 3406 3419 
Q 3406 3131 3298 2873 
Q 3191 2616 2906 2266 
Q 2828 2175 2409 1742 
Q 1991 1309 1228 531 
z
" transform="scale(0.015625)"/>
       </defs>
       <use xlink:href="#DejaVuSans-32"/>
       <use xlink:href="#DejaVuSans-30" transform="translate(63.623047 0)"/>
      </g>
     </g>
    </g>
    <g id="xtick_3">
     <g id="text_3">
      <!-- 30 -->
      <g style="fill: #262626" transform="translate(385.159494 453.1175) scale(0.16 -0.16)">
       <defs>
        <path id="DejaVuSans-33" d="M 2597 2516 
Q 3050 2419 3304 2112 
Q 3559 1806 3559 1356 
Q 3559 666 3084 287 
Q 2609 -91 1734 -91 
Q 1441 -91 1130 -33 
Q 819 25 488 141 
L 488 750 
Q 750 597 1062 519 
Q 1375 441 1716 441 
Q 2309 441 2620 675 
Q 2931 909 2931 1356 
Q 2931 1769 2642 2001 
Q 2353 2234 1838 2234 
L 1294 2234 
L 1294 2753 
L 1863 2753 
Q 2328 2753 2575 2939 
Q 2822 3125 2822 3475 
Q 2822 3834 2567 4026 
Q 2313 4219 1838 4219 
Q 1578 4219 1281 4162 
Q 984 4106 628 3988 
L 628 4550 
Q 988 4650 1302 4700 
Q 1616 4750 1894 4750 
Q 2613 4750 3031 4423 
Q 3450 4097 3450 3541 
Q 3450 3153 3228 2886 
Q 3006 2619 2597 2516 
z
" transform="scale(0.015625)"/>
       </defs>
       <use xlink:href="#DejaVuSans-33"/>
       <use xlink:href="#DejaVuSans-30" transform="translate(63.623047 0)"/>
      </g>
     </g>
    </g>
    <g id="xtick_4">
     <g id="text_4">
      <!-- 40 -->
      <g style="fill: #262626" transform="translate(513.865625 453.1175) scale(0.16 -0.16)">
       <defs>
        <path id="DejaVuSans-34" d="M 2419 4116 
L 825 1625 
L 2419 1625 
L 2419 4116 
z
M 2253 4666 
L 3047 4666 
L 3047 1625 
L 3713 1625 
L 3713 1100 
L 3047 1100 
L 3047 0 
L 2419 0 
L 2419 1100 
L 313 1100 
L 313 1709 
L 2253 4666 
z
" transform="scale(0.015625)"/>
       </defs>
       <use xlink:href="#DejaVuSans-34"/>
       <use xlink:href="#DejaVuSans-30" transform="translate(63.623047 0)"/>
      </g>
     </g>
    </g>
    <g id="xtick_5">
     <g id="text_5">
      <!-- 50 -->
      <g style="fill: #262626" transform="translate(642.571756 453.1175) scale(0.16 -0.16)">
       <defs>
        <path id="DejaVuSans-35" d="M 691 4666 
L 3169 4666 
L 3169 4134 
L 1269 4134 
L 1269 2991 
Q 1406 3038 1543 3061 
Q 1681 3084 1819 3084 
Q 2600 3084 3056 2656 
Q 3513 2228 3513 1497 
Q 3513 744 3044 326 
Q 2575 -91 1722 -91 
Q 1428 -91 1123 -41 
Q 819 9 494 109 
L 494 744 
Q 775 591 1075 516 
Q 1375 441 1709 441 
Q 2250 441 2565 725 
Q 2881 1009 2881 1497 
Q 2881 1984 2565 2268 
Q 2250 2553 1709 2553 
Q 1456 2553 1204 2497 
Q 953 2441 691 2322 
L 691 4666 
z
" transform="scale(0.015625)"/>
       </defs>
       <use xlink:href="#DejaVuSans-35"/>
       <use xlink:href="#DejaVuSans-30" transform="translate(63.623047 0)"/>
      </g>
     </g>
    </g>
    <g id="xtick_6">
     <g id="text_6">
      <!-- 60 -->
      <g style="fill: #262626" transform="translate(771.277887 453.1175) scale(0.16 -0.16)">
       <defs>
        <path id="DejaVuSans-36" d="M 2113 2584 
Q 1688 2584 1439 2293 
Q 1191 2003 1191 1497 
Q 1191 994 1439 701 
Q 1688 409 2113 409 
Q 2538 409 2786 701 
Q 3034 994 3034 1497 
Q 3034 2003 2786 2293 
Q 2538 2584 2113 2584 
z
M 3366 4563 
L 3366 3988 
Q 3128 4100 2886 4159 
Q 2644 4219 2406 4219 
Q 1781 4219 1451 3797 
Q 1122 3375 1075 2522 
Q 1259 2794 1537 2939 
Q 1816 3084 2150 3084 
Q 2853 3084 3261 2657 
Q 3669 2231 3669 1497 
Q 3669 778 3244 343 
Q 2819 -91 2113 -91 
Q 1303 -91 875 529 
Q 447 1150 447 2328 
Q 447 3434 972 4092 
Q 1497 4750 2381 4750 
Q 2619 4750 2861 4703 
Q 3103 4656 3366 4563 
z
" transform="scale(0.015625)"/>
       </defs>
       <use xlink:href="#DejaVuSans-36"/>
       <use xlink:href="#DejaVuSans-30" transform="translate(63.623047 0)"/>
      </g>
     </g>
    </g>
    <g id="xtick_7">
     <g id="text_7">
      <!-- 70 -->
      <g style="fill: #262626" transform="translate(899.984018 453.1175) scale(0.16 -0.16)">
       <defs>
        <path id="DejaVuSans-37" d="M 525 4666 
L 3525 4666 
L 3525 4397 
L 1831 0 
L 1172 0 
L 2766 4134 
L 525 4134 
L 525 4666 
z
" transform="scale(0.015625)"/>
       </defs>
       <use xlink:href="#DejaVuSans-37"/>
       <use xlink:href="#DejaVuSans-30" transform="translate(63.623047 0)"/>
      </g>
     </g>
    </g>
    <g id="text_8">
     <!-- Percent of Resources Collected -->
     <g style="fill: #262626" transform="translate(384.919688 474.122187) scale(0.18 -0.18)">
      <defs>
       <path id="DejaVuSans-50" d="M 1259 4147 
L 1259 2394 
L 2053 2394 
Q 2494 2394 2734 2622 
Q 2975 2850 2975 3272 
Q 2975 3691 2734 3919 
Q 2494 4147 2053 4147 
L 1259 4147 
z
M 628 4666 
L 2053 4666 
Q 2838 4666 3239 4311 
Q 3641 3956 3641 3272 
Q 3641 2581 3239 2228 
Q 2838 1875 2053 1875 
L 1259 1875 
L 1259 0 
L 628 0 
L 628 4666 
z
" transform="scale(0.015625)"/>
       <path id="DejaVuSans-65" d="M 3597 1894 
L 3597 1613 
L 953 1613 
Q 991 1019 1311 708 
Q 1631 397 2203 397 
Q 2534 397 2845 478 
Q 3156 559 3463 722 
L 3463 178 
Q 3153 47 2828 -22 
Q 2503 -91 2169 -91 
Q 1331 -91 842 396 
Q 353 884 353 1716 
Q 353 2575 817 3079 
Q 1281 3584 2069 3584 
Q 2775 3584 3186 3129 
Q 3597 2675 3597 1894 
z
M 3022 2063 
Q 3016 2534 2758 2815 
Q 2500 3097 2075 3097 
Q 1594 3097 1305 2825 
Q 1016 2553 972 2059 
L 3022 2063 
z
" transform="scale(0.015625)"/>
       <path id="DejaVuSans-72" d="M 2631 2963 
Q 2534 3019 2420 3045 
Q 2306 3072 2169 3072 
Q 1681 3072 1420 2755 
Q 1159 2438 1159 1844 
L 1159 0 
L 581 0 
L 581 3500 
L 1159 3500 
L 1159 2956 
Q 1341 3275 1631 3429 
Q 1922 3584 2338 3584 
Q 2397 3584 2469 3576 
Q 2541 3569 2628 3553 
L 2631 2963 
z
" transform="scale(0.015625)"/>
       <path id="DejaVuSans-63" d="M 3122 3366 
L 3122 2828 
Q 2878 2963 2633 3030 
Q 2388 3097 2138 3097 
Q 1578 3097 1268 2742 
Q 959 2388 959 1747 
Q 959 1106 1268 751 
Q 1578 397 2138 397 
Q 2388 397 2633 464 
Q 2878 531 3122 666 
L 3122 134 
Q 2881 22 2623 -34 
Q 2366 -91 2075 -91 
Q 1284 -91 818 406 
Q 353 903 353 1747 
Q 353 2603 823 3093 
Q 1294 3584 2113 3584 
Q 2378 3584 2631 3529 
Q 2884 3475 3122 3366 
z
" transform="scale(0.015625)"/>
       <path id="DejaVuSans-6e" d="M 3513 2113 
L 3513 0 
L 2938 0 
L 2938 2094 
Q 2938 2591 2744 2837 
Q 2550 3084 2163 3084 
Q 1697 3084 1428 2787 
Q 1159 2491 1159 1978 
L 1159 0 
L 581 0 
L 581 3500 
L 1159 3500 
L 1159 2956 
Q 1366 3272 1645 3428 
Q 1925 3584 2291 3584 
Q 2894 3584 3203 3211 
Q 3513 2838 3513 2113 
z
" transform="scale(0.015625)"/>
       <path id="DejaVuSans-74" d="M 1172 4494 
L 1172 3500 
L 2356 3500 
L 2356 3053 
L 1172 3053 
L 1172 1153 
Q 1172 725 1289 603 
Q 1406 481 1766 481 
L 2356 481 
L 2356 0 
L 1766 0 
Q 1100 0 847 248 
Q 594 497 594 1153 
L 594 3053 
L 172 3053 
L 172 3500 
L 594 3500 
L 594 4494 
L 1172 4494 
z
" transform="scale(0.015625)"/>
       <path id="DejaVuSans-20" transform="scale(0.015625)"/>
       <path id="DejaVuSans-6f" d="M 1959 3097 
Q 1497 3097 1228 2736 
Q 959 2375 959 1747 
Q 959 1119 1226 758 
Q 1494 397 1959 397 
Q 2419 397 2687 759 
Q 2956 1122 2956 1747 
Q 2956 2369 2687 2733 
Q 2419 3097 1959 3097 
z
M 1959 3584 
Q 2709 3584 3137 3096 
Q 3566 2609 3566 1747 
Q 3566 888 3137 398 
Q 2709 -91 1959 -91 
Q 1206 -91 779 398 
Q 353 888 353 1747 
Q 353 2609 779 3096 
Q 1206 3584 1959 3584 
z
" transform="scale(0.015625)"/>
       <path id="DejaVuSans-66" d="M 2375 4863 
L 2375 4384 
L 1825 4384 
Q 1516 4384 1395 4259 
Q 1275 4134 1275 3809 
L 1275 3500 
L 2222 3500 
L 2222 3053 
L 1275 3053 
L 1275 0 
L 697 0 
L 697 3053 
L 147 3053 
L 147 3500 
L 697 3500 
L 697 3744 
Q 697 4328 969 4595 
Q 1241 4863 1831 4863 
L 2375 4863 
z
" transform="scale(0.015625)"/>
       <path id="DejaVuSans-52" d="M 2841 2188 
Q 3044 2119 3236 1894 
Q 3428 1669 3622 1275 
L 4263 0 
L 3584 0 
L 2988 1197 
Q 2756 1666 2539 1819 
Q 2322 1972 1947 1972 
L 1259 1972 
L 1259 0 
L 628 0 
L 628 4666 
L 2053 4666 
Q 2853 4666 3247 4331 
Q 3641 3997 3641 3322 
Q 3641 2881 3436 2590 
Q 3231 2300 2841 2188 
z
M 1259 4147 
L 1259 2491 
L 2053 2491 
Q 2509 2491 2742 2702 
Q 2975 2913 2975 3322 
Q 2975 3731 2742 3939 
Q 2509 4147 2053 4147 
L 1259 4147 
z
" transform="scale(0.015625)"/>
       <path id="DejaVuSans-73" d="M 2834 3397 
L 2834 2853 
Q 2591 2978 2328 3040 
Q 2066 3103 1784 3103 
Q 1356 3103 1142 2972 
Q 928 2841 928 2578 
Q 928 2378 1081 2264 
Q 1234 2150 1697 2047 
L 1894 2003 
Q 2506 1872 2764 1633 
Q 3022 1394 3022 966 
Q 3022 478 2636 193 
Q 2250 -91 1575 -91 
Q 1294 -91 989 -36 
Q 684 19 347 128 
L 347 722 
Q 666 556 975 473 
Q 1284 391 1588 391 
Q 1994 391 2212 530 
Q 2431 669 2431 922 
Q 2431 1156 2273 1281 
Q 2116 1406 1581 1522 
L 1381 1569 
Q 847 1681 609 1914 
Q 372 2147 372 2553 
Q 372 3047 722 3315 
Q 1072 3584 1716 3584 
Q 2034 3584 2315 3537 
Q 2597 3491 2834 3397 
z
" transform="scale(0.015625)"/>
       <path id="DejaVuSans-75" d="M 544 1381 
L 544 3500 
L 1119 3500 
L 1119 1403 
Q 1119 906 1312 657 
Q 1506 409 1894 409 
Q 2359 409 2629 706 
Q 2900 1003 2900 1516 
L 2900 3500 
L 3475 3500 
L 3475 0 
L 2900 0 
L 2900 538 
Q 2691 219 2414 64 
Q 2138 -91 1772 -91 
Q 1169 -91 856 284 
Q 544 659 544 1381 
z
M 1991 3584 
L 1991 3584 
z
" transform="scale(0.015625)"/>
       <path id="DejaVuSans-43" d="M 4122 4306 
L 4122 3641 
Q 3803 3938 3442 4084 
Q 3081 4231 2675 4231 
Q 1875 4231 1450 3742 
Q 1025 3253 1025 2328 
Q 1025 1406 1450 917 
Q 1875 428 2675 428 
Q 3081 428 3442 575 
Q 3803 722 4122 1019 
L 4122 359 
Q 3791 134 3420 21 
Q 3050 -91 2638 -91 
Q 1578 -91 968 557 
Q 359 1206 359 2328 
Q 359 3453 968 4101 
Q 1578 4750 2638 4750 
Q 3056 4750 3426 4639 
Q 3797 4528 4122 4306 
z
" transform="scale(0.015625)"/>
       <path id="DejaVuSans-6c" d="M 603 4863 
L 1178 4863 
L 1178 0 
L 603 0 
L 603 4863 
z
" transform="scale(0.015625)"/>
       <path id="DejaVuSans-64" d="M 2906 2969 
L 2906 4863 
L 3481 4863 
L 3481 0 
L 2906 0 
L 2906 525 
Q 2725 213 2448 61 
Q 2172 -91 1784 -91 
Q 1150 -91 751 415 
Q 353 922 353 1747 
Q 353 2572 751 3078 
Q 1150 3584 1784 3584 
Q 2172 3584 2448 3432 
Q 2725 3281 2906 2969 
z
M 947 1747 
Q 947 1113 1208 752 
Q 1469 391 1925 391 
Q 2381 391 2643 752 
Q 2906 1113 2906 1747 
Q 2906 2381 2643 2742 
Q 2381 3103 1925 3103 
Q 1469 3103 1208 2742 
Q 947 2381 947 1747 
z
" transform="scale(0.015625)"/>
      </defs>
      <use xlink:href="#DejaVuSans-50"/>
      <use xlink:href="#DejaVuSans-65" transform="translate(56.677734 0)"/>
      <use xlink:href="#DejaVuSans-72" transform="translate(118.201172 0)"/>
      <use xlink:href="#DejaVuSans-63" transform="translate(157.064453 0)"/>
      <use xlink:href="#DejaVuSans-65" transform="translate(212.044922 0)"/>
      <use xlink:href="#DejaVuSans-6e" transform="translate(273.568359 0)"/>
      <use xlink:href="#DejaVuSans-74" transform="translate(336.947266 0)"/>
      <use xlink:href="#DejaVuSans-20" transform="translate(376.15625 0)"/>
      <use xlink:href="#DejaVuSans-6f" transform="translate(407.943359 0)"/>
      <use xlink:href="#DejaVuSans-66" transform="translate(469.125 0)"/>
      <use xlink:href="#DejaVuSans-20" transform="translate(504.330078 0)"/>
      <use xlink:href="#DejaVuSans-52" transform="translate(536.117188 0)"/>
      <use xlink:href="#DejaVuSans-65" transform="translate(601.099609 0)"/>
      <use xlink:href="#DejaVuSans-73" transform="translate(662.623047 0)"/>
      <use xlink:href="#DejaVuSans-6f" transform="translate(714.722656 0)"/>
      <use xlink:href="#DejaVuSans-75" transform="translate(775.904297 0)"/>
      <use xlink:href="#DejaVuSans-72" transform="translate(839.283203 0)"/>
      <use xlink:href="#DejaVuSans-63" transform="translate(878.146484 0)"/>
      <use xlink:href="#DejaVuSans-65" transform="translate(933.126953 0)"/>
      <use xlink:href="#DejaVuSans-73" transform="translate(994.650391 0)"/>
      <use xlink:href="#DejaVuSans-20" transform="translate(1046.75 0)"/>
      <use xlink:href="#DejaVuSans-43" transform="translate(1078.537109 0)"/>
      <use xlink:href="#DejaVuSans-6f" transform="translate(1148.361328 0)"/>
      <use xlink:href="#DejaVuSans-6c" transform="translate(1209.542969 0)"/>
      <use xlink:href="#DejaVuSans-6c" transform="translate(1237.326172 0)"/>
      <use xlink:href="#DejaVuSans-65" transform="translate(1265.109375 0)"/>
      <use xlink:href="#DejaVuSans-63" transform="translate(1326.632812 0)"/>
      <use xlink:href="#DejaVuSans-74" transform="translate(1381.613281 0)"/>
      <use xlink:href="#DejaVuSans-65" transform="translate(1420.822266 0)"/>
      <use xlink:href="#DejaVuSans-64" transform="translate(1482.345703 0)"/>
     </g>
    </g>
   </g>
   <g id="matplotlib.axis_2">
    <g id="ytick_1">
     <g id="line2d_1">
      <path d="M 67.460625 429.043106 
L 980.630625 429.043106 
" clip-path="url(#p72ffc661a9)" style="fill: none; stroke: #cccccc; stroke-width: 0.8; stroke-linecap: round"/>
     </g>
     <g id="text_9">
      <!-- 0 -->
      <g style="fill: #262626" transform="translate(48.980625 435.121856) scale(0.16 -0.16)">
       <use xlink:href="#DejaVuSans-30"/>
      </g>
     </g>
    </g>
    <g id="ytick_2">
     <g id="line2d_2">
      <path d="M 67.460625 336.598526 
L 980.630625 336.598526 
" clip-path="url(#p72ffc661a9)" style="fill: none; stroke: #cccccc; stroke-width: 0.8; stroke-linecap: round"/>
     </g>
     <g id="text_10">
      <!-- 200 -->
      <g style="fill: #262626" transform="translate(28.620625 342.677276) scale(0.16 -0.16)">
       <use xlink:href="#DejaVuSans-32"/>
       <use xlink:href="#DejaVuSans-30" transform="translate(63.623047 0)"/>
       <use xlink:href="#DejaVuSans-30" transform="translate(127.246094 0)"/>
      </g>
     </g>
    </g>
    <g id="ytick_3">
     <g id="line2d_3">
      <path d="M 67.460625 244.153947 
L 980.630625 244.153947 
" clip-path="url(#p72ffc661a9)" style="fill: none; stroke: #cccccc; stroke-width: 0.8; stroke-linecap: round"/>
     </g>
     <g id="text_11">
      <!-- 400 -->
      <g style="fill: #262626" transform="translate(28.620625 250.232697) scale(0.16 -0.16)">
       <use xlink:href="#DejaVuSans-34"/>
       <use xlink:href="#DejaVuSans-30" transform="translate(63.623047 0)"/>
       <use xlink:href="#DejaVuSans-30" transform="translate(127.246094 0)"/>
      </g>
     </g>
    </g>
    <g id="ytick_4">
     <g id="line2d_4">
      <path d="M 67.460625 151.709367 
L 980.630625 151.709367 
" clip-path="url(#p72ffc661a9)" style="fill: none; stroke: #cccccc; stroke-width: 0.8; stroke-linecap: round"/>
     </g>
     <g id="text_12">
      <!-- 600 -->
      <g style="fill: #262626" transform="translate(28.620625 157.788117) scale(0.16 -0.16)">
       <use xlink:href="#DejaVuSans-36"/>
       <use xlink:href="#DejaVuSans-30" transform="translate(63.623047 0)"/>
       <use xlink:href="#DejaVuSans-30" transform="translate(127.246094 0)"/>
      </g>
     </g>
    </g>
    <g id="ytick_5">
     <g id="line2d_5">
      <path d="M 67.460625 59.264787 
L 980.630625 59.264787 
" clip-path="url(#p72ffc661a9)" style="fill: none; stroke: #cccccc; stroke-width: 0.8; stroke-linecap: round"/>
     </g>
     <g id="text_13">
      <!-- 800 -->
      <g style="fill: #262626" transform="translate(28.620625 65.343537) scale(0.16 -0.16)">
       <defs>
        <path id="DejaVuSans-38" d="M 2034 2216 
Q 1584 2216 1326 1975 
Q 1069 1734 1069 1313 
Q 1069 891 1326 650 
Q 1584 409 2034 409 
Q 2484 409 2743 651 
Q 3003 894 3003 1313 
Q 3003 1734 2745 1975 
Q 2488 2216 2034 2216 
z
M 1403 2484 
Q 997 2584 770 2862 
Q 544 3141 544 3541 
Q 544 4100 942 4425 
Q 1341 4750 2034 4750 
Q 2731 4750 3128 4425 
Q 3525 4100 3525 3541 
Q 3525 3141 3298 2862 
Q 3072 2584 2669 2484 
Q 3125 2378 3379 2068 
Q 3634 1759 3634 1313 
Q 3634 634 3220 271 
Q 2806 -91 2034 -91 
Q 1263 -91 848 271 
Q 434 634 434 1313 
Q 434 1759 690 2068 
Q 947 2378 1403 2484 
z
M 1172 3481 
Q 1172 3119 1398 2916 
Q 1625 2713 2034 2713 
Q 2441 2713 2670 2916 
Q 2900 3119 2900 3481 
Q 2900 3844 2670 4047 
Q 2441 4250 2034 4250 
Q 1625 4250 1398 4047 
Q 1172 3844 1172 3481 
z
" transform="scale(0.015625)"/>
       </defs>
       <use xlink:href="#DejaVuSans-38"/>
       <use xlink:href="#DejaVuSans-30" transform="translate(63.623047 0)"/>
       <use xlink:href="#DejaVuSans-30" transform="translate(127.246094 0)"/>
      </g>
     </g>
    </g>
    <g id="text_14">
     <!-- Time (seconds) -->
     <g style="fill: #262626" transform="translate(20.877187 288.621094) rotate(-90) scale(0.18 -0.18)">
      <defs>
       <path id="DejaVuSans-54" d="M -19 4666 
L 3928 4666 
L 3928 4134 
L 2272 4134 
L 2272 0 
L 1638 0 
L 1638 4134 
L -19 4134 
L -19 4666 
z
" transform="scale(0.015625)"/>
       <path id="DejaVuSans-69" d="M 603 3500 
L 1178 3500 
L 1178 0 
L 603 0 
L 603 3500 
z
M 603 4863 
L 1178 4863 
L 1178 4134 
L 603 4134 
L 603 4863 
z
" transform="scale(0.015625)"/>
       <path id="DejaVuSans-6d" d="M 3328 2828 
Q 3544 3216 3844 3400 
Q 4144 3584 4550 3584 
Q 5097 3584 5394 3201 
Q 5691 2819 5691 2113 
L 5691 0 
L 5113 0 
L 5113 2094 
Q 5113 2597 4934 2840 
Q 4756 3084 4391 3084 
Q 3944 3084 3684 2787 
Q 3425 2491 3425 1978 
L 3425 0 
L 2847 0 
L 2847 2094 
Q 2847 2600 2669 2842 
Q 2491 3084 2119 3084 
Q 1678 3084 1418 2786 
Q 1159 2488 1159 1978 
L 1159 0 
L 581 0 
L 581 3500 
L 1159 3500 
L 1159 2956 
Q 1356 3278 1631 3431 
Q 1906 3584 2284 3584 
Q 2666 3584 2933 3390 
Q 3200 3197 3328 2828 
z
" transform="scale(0.015625)"/>
       <path id="DejaVuSans-28" d="M 1984 4856 
Q 1566 4138 1362 3434 
Q 1159 2731 1159 2009 
Q 1159 1288 1364 580 
Q 1569 -128 1984 -844 
L 1484 -844 
Q 1016 -109 783 600 
Q 550 1309 550 2009 
Q 550 2706 781 3412 
Q 1013 4119 1484 4856 
L 1984 4856 
z
" transform="scale(0.015625)"/>
       <path id="DejaVuSans-29" d="M 513 4856 
L 1013 4856 
Q 1481 4119 1714 3412 
Q 1947 2706 1947 2009 
Q 1947 1309 1714 600 
Q 1481 -109 1013 -844 
L 513 -844 
Q 928 -128 1133 580 
Q 1338 1288 1338 2009 
Q 1338 2731 1133 3434 
Q 928 4138 513 4856 
z
" transform="scale(0.015625)"/>
      </defs>
      <use xlink:href="#DejaVuSans-54"/>
      <use xlink:href="#DejaVuSans-69" transform="translate(57.958984 0)"/>
      <use xlink:href="#DejaVuSans-6d" transform="translate(85.742188 0)"/>
      <use xlink:href="#DejaVuSans-65" transform="translate(183.154297 0)"/>
      <use xlink:href="#DejaVuSans-20" transform="translate(244.677734 0)"/>
      <use xlink:href="#DejaVuSans-28" transform="translate(276.464844 0)"/>
      <use xlink:href="#DejaVuSans-73" transform="translate(315.478516 0)"/>
      <use xlink:href="#DejaVuSans-65" transform="translate(367.578125 0)"/>
      <use xlink:href="#DejaVuSans-63" transform="translate(429.101562 0)"/>
      <use xlink:href="#DejaVuSans-6f" transform="translate(484.082031 0)"/>
      <use xlink:href="#DejaVuSans-6e" transform="translate(545.263672 0)"/>
      <use xlink:href="#DejaVuSans-64" transform="translate(608.642578 0)"/>
      <use xlink:href="#DejaVuSans-73" transform="translate(672.119141 0)"/>
      <use xlink:href="#DejaVuSans-29" transform="translate(724.21875 0)"/>
     </g>
    </g>
   </g>
   <g id="patch_3">
    <path d="M 137.927232 429.043106 
L 137.927232 429.043106 
L 137.927232 429.043106 
L 137.927232 429.043106 
z
" clip-path="url(#p72ffc661a9)" style="fill: #5875a4; stroke: #464646; stroke-width: 1.1; stroke-linejoin: miter"/>
   </g>
   <g id="patch_4">
    <path d="M 137.927232 429.043106 
L 137.927232 429.043106 
L 137.927232 429.043106 
L 137.927232 429.043106 
z
" clip-path="url(#p72ffc661a9)" style="fill: #ad483e; stroke: #464646; stroke-width: 1.1; stroke-linejoin: miter"/>
   </g>
   <g id="patch_5">
    <path d="M 108.968352 408.416409 
L 137.927232 408.416409 
L 137.927232 403.909736 
L 108.968352 403.909736 
L 108.968352 408.416409 
z
" clip-path="url(#p72ffc661a9)" style="fill: #5875a4; stroke: #464646; stroke-width: 1.1; stroke-linejoin: miter"/>
   </g>
   <g id="line2d_6">
    <path d="M 123.447792 408.416409 
L 123.447792 412.865304 
" clip-path="url(#p72ffc661a9)" style="fill: none; stroke: #464646; stroke-width: 1.1"/>
   </g>
   <g id="line2d_7">
    <path d="M 123.447792 403.909736 
L 123.447792 398.074172 
" clip-path="url(#p72ffc661a9)" style="fill: none; stroke: #464646; stroke-width: 1.1"/>
   </g>
   <g id="line2d_8">
    <path d="M 116.208072 412.865304 
L 130.687512 412.865304 
" clip-path="url(#p72ffc661a9)" style="fill: none; stroke: #464646; stroke-width: 1.1; stroke-linecap: round"/>
   </g>
   <g id="line2d_9">
    <path d="M 116.208072 398.074172 
L 130.687512 398.074172 
" clip-path="url(#p72ffc661a9)" style="fill: none; stroke: #464646; stroke-width: 1.1; stroke-linecap: round"/>
   </g>
   <g id="line2d_10">
    <defs>
     <path id="m939c6a8a53" d="M 0 1.5 
C 0.397805 1.5 0.77937 1.341951 1.06066 1.06066 
C 1.341951 0.77937 1.5 0.397805 1.5 0 
C 1.5 -0.397805 1.341951 -0.77937 1.06066 -1.06066 
C 0.77937 -1.341951 0.397805 -1.5 0 -1.5 
C -0.397805 -1.5 -0.77937 -1.341951 -1.06066 -1.06066 
C -1.341951 -0.77937 -1.5 -0.397805 -1.5 0 
C -1.5 0.397805 -1.341951 0.77937 -1.06066 1.06066 
C -0.77937 1.341951 -0.397805 1.5 0 1.5 
z
" style="stroke: #464646"/>
    </defs>
    <g clip-path="url(#p72ffc661a9)">
     <use xlink:href="#m939c6a8a53" x="123.447792" y="393.451943" style="fill-opacity: 0; stroke: #464646"/>
     <use xlink:href="#m939c6a8a53" x="123.447792" y="396.687503" style="fill-opacity: 0; stroke: #464646"/>
    </g>
   </g>
   <g id="patch_6">
    <path d="M 237.674483 365.256346 
L 266.633363 365.256346 
L 266.633363 359.99856 
L 237.674483 359.99856 
L 237.674483 365.256346 
z
" clip-path="url(#p72ffc661a9)" style="fill: #5875a4; stroke: #464646; stroke-width: 1.1; stroke-linejoin: miter"/>
   </g>
   <g id="line2d_11">
    <path d="M 252.153923 365.256346 
L 252.153923 370.803021 
" clip-path="url(#p72ffc661a9)" style="fill: none; stroke: #464646; stroke-width: 1.1"/>
   </g>
   <g id="line2d_12">
    <path d="M 252.153923 359.99856 
L 252.153923 353.469662 
" clip-path="url(#p72ffc661a9)" style="fill: none; stroke: #464646; stroke-width: 1.1"/>
   </g>
   <g id="line2d_13">
    <path d="M 244.914203 370.803021 
L 259.393643 370.803021 
" clip-path="url(#p72ffc661a9)" style="fill: none; stroke: #464646; stroke-width: 1.1; stroke-linecap: round"/>
   </g>
   <g id="line2d_14">
    <path d="M 244.914203 353.469662 
L 259.393643 353.469662 
" clip-path="url(#p72ffc661a9)" style="fill: none; stroke: #464646; stroke-width: 1.1; stroke-linecap: round"/>
   </g>
   <g id="line2d_15">
    <g clip-path="url(#p72ffc661a9)">
     <use xlink:href="#m939c6a8a53" x="252.153923" y="346.998541" style="fill-opacity: 0; stroke: #464646"/>
     <use xlink:href="#m939c6a8a53" x="252.153923" y="351.389659" style="fill-opacity: 0; stroke: #464646"/>
    </g>
   </g>
   <g id="patch_7">
    <path d="M 366.380614 326.602956 
L 395.339494 326.602956 
L 395.339494 317.416276 
L 366.380614 317.416276 
L 366.380614 326.602956 
z
" clip-path="url(#p72ffc661a9)" style="fill: #5875a4; stroke: #464646; stroke-width: 1.1; stroke-linejoin: miter"/>
   </g>
   <g id="line2d_16">
    <path d="M 380.860054 326.602956 
L 380.860054 336.136303 
" clip-path="url(#p72ffc661a9)" style="fill: none; stroke: #464646; stroke-width: 1.1"/>
   </g>
   <g id="line2d_17">
    <path d="M 380.860054 317.416276 
L 380.860054 304.936258 
" clip-path="url(#p72ffc661a9)" style="fill: none; stroke: #464646; stroke-width: 1.1"/>
   </g>
   <g id="line2d_18">
    <path d="M 373.620334 336.136303 
L 388.099774 336.136303 
" clip-path="url(#p72ffc661a9)" style="fill: none; stroke: #464646; stroke-width: 1.1; stroke-linecap: round"/>
   </g>
   <g id="line2d_19">
    <path d="M 373.620334 304.936258 
L 388.099774 304.936258 
" clip-path="url(#p72ffc661a9)" style="fill: none; stroke: #464646; stroke-width: 1.1; stroke-linecap: round"/>
   </g>
   <g id="line2d_20">
    <g clip-path="url(#p72ffc661a9)">
     <use xlink:href="#m939c6a8a53" x="380.860054" y="301.238474" style="fill-opacity: 0; stroke: #464646"/>
    </g>
   </g>
   <g id="patch_8">
    <path d="M 495.086746 282.865114 
L 524.045625 282.865114 
L 524.045625 272.9851 
L 495.086746 272.9851 
L 495.086746 282.865114 
z
" clip-path="url(#p72ffc661a9)" style="fill: #5875a4; stroke: #464646; stroke-width: 1.1; stroke-linejoin: miter"/>
   </g>
   <g id="line2d_21">
    <path d="M 509.566185 282.865114 
L 509.566185 291.531794 
" clip-path="url(#p72ffc661a9)" style="fill: none; stroke: #464646; stroke-width: 1.1"/>
   </g>
   <g id="line2d_22">
    <path d="M 509.566185 272.9851 
L 509.566185 258.251745 
" clip-path="url(#p72ffc661a9)" style="fill: none; stroke: #464646; stroke-width: 1.1"/>
   </g>
   <g id="line2d_23">
    <path d="M 502.326465 291.531794 
L 516.805905 291.531794 
" clip-path="url(#p72ffc661a9)" style="fill: none; stroke: #464646; stroke-width: 1.1; stroke-linecap: round"/>
   </g>
   <g id="line2d_24">
    <path d="M 502.326465 258.251745 
L 516.805905 258.251745 
" clip-path="url(#p72ffc661a9)" style="fill: none; stroke: #464646; stroke-width: 1.1; stroke-linecap: round"/>
   </g>
   <g id="line2d_25">
    <g clip-path="url(#p72ffc661a9)">
     <use xlink:href="#m939c6a8a53" x="509.566185" y="256.865076" style="fill-opacity: 0; stroke: #464646"/>
     <use xlink:href="#m939c6a8a53" x="509.566185" y="256.402853" style="fill-opacity: 0; stroke: #464646"/>
    </g>
   </g>
   <g id="patch_9">
    <path d="M 623.792877 235.371711 
L 652.751756 235.371711 
L 652.751756 225.665031 
L 623.792877 225.665031 
L 623.792877 235.371711 
z
" clip-path="url(#p72ffc661a9)" style="fill: #5875a4; stroke: #464646; stroke-width: 1.1; stroke-linejoin: miter"/>
   </g>
   <g id="line2d_26">
    <path d="M 638.272316 235.371711 
L 638.272316 248.776176 
" clip-path="url(#p72ffc661a9)" style="fill: none; stroke: #464646; stroke-width: 1.1"/>
   </g>
   <g id="line2d_27">
    <path d="M 638.272316 225.665031 
L 638.272316 215.727238 
" clip-path="url(#p72ffc661a9)" style="fill: none; stroke: #464646; stroke-width: 1.1"/>
   </g>
   <g id="line2d_28">
    <path d="M 631.032596 248.776176 
L 645.512036 248.776176 
" clip-path="url(#p72ffc661a9)" style="fill: none; stroke: #464646; stroke-width: 1.1; stroke-linecap: round"/>
   </g>
   <g id="line2d_29">
    <path d="M 631.032596 215.727238 
L 645.512036 215.727238 
" clip-path="url(#p72ffc661a9)" style="fill: none; stroke: #464646; stroke-width: 1.1; stroke-linecap: round"/>
   </g>
   <g id="line2d_30">
    <g clip-path="url(#p72ffc661a9)">
     <use xlink:href="#m939c6a8a53" x="638.272316" y="207.869449" style="fill-opacity: 0; stroke: #464646"/>
     <use xlink:href="#m939c6a8a53" x="638.272316" y="198.624991" style="fill-opacity: 0; stroke: #464646"/>
    </g>
   </g>
   <g id="patch_10">
    <path d="M 752.499008 183.140524 
L 781.457887 183.140524 
L 781.457887 172.97162 
L 752.499008 172.97162 
L 752.499008 183.140524 
z
" clip-path="url(#p72ffc661a9)" style="fill: #5875a4; stroke: #464646; stroke-width: 1.1; stroke-linejoin: miter"/>
   </g>
   <g id="line2d_31">
    <path d="M 766.978447 183.140524 
L 766.978447 197.007211 
" clip-path="url(#p72ffc661a9)" style="fill: none; stroke: #464646; stroke-width: 1.1"/>
   </g>
   <g id="line2d_32">
    <path d="M 766.978447 172.97162 
L 766.978447 160.722713 
" clip-path="url(#p72ffc661a9)" style="fill: none; stroke: #464646; stroke-width: 1.1"/>
   </g>
   <g id="line2d_33">
    <path d="M 759.738728 197.007211 
L 774.218167 197.007211 
" clip-path="url(#p72ffc661a9)" style="fill: none; stroke: #464646; stroke-width: 1.1; stroke-linecap: round"/>
   </g>
   <g id="line2d_34">
    <path d="M 759.738728 160.722713 
L 774.218167 160.722713 
" clip-path="url(#p72ffc661a9)" style="fill: none; stroke: #464646; stroke-width: 1.1; stroke-linecap: round"/>
   </g>
   <g id="line2d_35">
    <g clip-path="url(#p72ffc661a9)">
     <use xlink:href="#m939c6a8a53" x="766.978447" y="202.553886" style="fill-opacity: 0; stroke: #464646"/>
     <use xlink:href="#m939c6a8a53" x="766.978447" y="156.562707" style="fill-opacity: 0; stroke: #464646"/>
     <use xlink:href="#m939c6a8a53" x="766.978447" y="148.704918" style="fill-opacity: 0; stroke: #464646"/>
    </g>
   </g>
   <g id="patch_11">
    <path d="M 881.205139 127.442665 
L 910.164018 127.442665 
L 910.164018 115.598203 
L 881.205139 115.598203 
L 881.205139 127.442665 
z
" clip-path="url(#p72ffc661a9)" style="fill: #5875a4; stroke: #464646; stroke-width: 1.1; stroke-linejoin: miter"/>
   </g>
   <g id="line2d_36">
    <path d="M 895.684578 127.442665 
L 895.684578 140.153794 
" clip-path="url(#p72ffc661a9)" style="fill: none; stroke: #464646; stroke-width: 1.1"/>
   </g>
   <g id="line2d_37">
    <path d="M 895.684578 115.598203 
L 895.684578 99.478179 
" clip-path="url(#p72ffc661a9)" style="fill: none; stroke: #464646; stroke-width: 1.1"/>
   </g>
   <g id="line2d_38">
    <path d="M 888.444859 140.153794 
L 902.924298 140.153794 
" clip-path="url(#p72ffc661a9)" style="fill: none; stroke: #464646; stroke-width: 1.1; stroke-linecap: round"/>
   </g>
   <g id="line2d_39">
    <path d="M 888.444859 99.478179 
L 902.924298 99.478179 
" clip-path="url(#p72ffc661a9)" style="fill: none; stroke: #464646; stroke-width: 1.1; stroke-linecap: round"/>
   </g>
   <g id="line2d_40">
    <g clip-path="url(#p72ffc661a9)">
     <use xlink:href="#m939c6a8a53" x="895.684578" y="152.864924" style="fill-opacity: 0; stroke: #464646"/>
    </g>
   </g>
   <g id="patch_12">
    <path d="M 137.927232 409.860856 
L 166.886111 409.860856 
L 166.886111 405.007515 
L 137.927232 405.007515 
L 137.927232 409.860856 
z
" clip-path="url(#p72ffc661a9)" style="fill: #ad483e; stroke: #464646; stroke-width: 1.1; stroke-linejoin: miter"/>
   </g>
   <g id="line2d_41">
    <path d="M 152.406672 409.860856 
L 152.406672 416.794199 
" clip-path="url(#p72ffc661a9)" style="fill: none; stroke: #464646; stroke-width: 1.1"/>
   </g>
   <g id="line2d_42">
    <path d="M 152.406672 405.007515 
L 152.406672 399.229729 
" clip-path="url(#p72ffc661a9)" style="fill: none; stroke: #464646; stroke-width: 1.1"/>
   </g>
   <g id="line2d_43">
    <path d="M 145.166952 416.794199 
L 159.646391 416.794199 
" clip-path="url(#p72ffc661a9)" style="fill: none; stroke: #464646; stroke-width: 1.1; stroke-linecap: round"/>
   </g>
   <g id="line2d_44">
    <path d="M 145.166952 399.229729 
L 159.646391 399.229729 
" clip-path="url(#p72ffc661a9)" style="fill: none; stroke: #464646; stroke-width: 1.1; stroke-linecap: round"/>
   </g>
   <g id="line2d_45"/>
   <g id="patch_13">
    <path d="M 266.633363 369.358574 
L 295.592242 369.358574 
L 295.592242 362.771898 
L 266.633363 362.771898 
L 266.633363 369.358574 
z
" clip-path="url(#p72ffc661a9)" style="fill: #ad483e; stroke: #464646; stroke-width: 1.1; stroke-linejoin: miter"/>
   </g>
   <g id="line2d_46">
    <path d="M 281.112803 369.358574 
L 281.112803 374.269692 
" clip-path="url(#p72ffc661a9)" style="fill: none; stroke: #464646; stroke-width: 1.1"/>
   </g>
   <g id="line2d_47">
    <path d="M 281.112803 362.771898 
L 281.112803 357.398557 
" clip-path="url(#p72ffc661a9)" style="fill: none; stroke: #464646; stroke-width: 1.1"/>
   </g>
   <g id="line2d_48">
    <path d="M 273.873083 374.269692 
L 288.352522 374.269692 
" clip-path="url(#p72ffc661a9)" style="fill: none; stroke: #464646; stroke-width: 1.1; stroke-linecap: round"/>
   </g>
   <g id="line2d_49">
    <path d="M 273.873083 357.398557 
L 288.352522 357.398557 
" clip-path="url(#p72ffc661a9)" style="fill: none; stroke: #464646; stroke-width: 1.1; stroke-linecap: round"/>
   </g>
   <g id="line2d_50"/>
   <g id="patch_14">
    <path d="M 395.339494 329.434071 
L 424.298373 329.434071 
L 424.298373 321.691838 
L 395.339494 321.691838 
L 395.339494 329.434071 
z
" clip-path="url(#p72ffc661a9)" style="fill: #ad483e; stroke: #464646; stroke-width: 1.1; stroke-linejoin: miter"/>
   </g>
   <g id="line2d_51">
    <path d="M 409.818934 329.434071 
L 409.818934 339.371864 
" clip-path="url(#p72ffc661a9)" style="fill: none; stroke: #464646; stroke-width: 1.1"/>
   </g>
   <g id="line2d_52">
    <path d="M 409.818934 321.691838 
L 409.818934 313.025158 
" clip-path="url(#p72ffc661a9)" style="fill: none; stroke: #464646; stroke-width: 1.1"/>
   </g>
   <g id="line2d_53">
    <path d="M 402.579214 339.371864 
L 417.058654 339.371864 
" clip-path="url(#p72ffc661a9)" style="fill: none; stroke: #464646; stroke-width: 1.1; stroke-linecap: round"/>
   </g>
   <g id="line2d_54">
    <path d="M 402.579214 313.025158 
L 417.058654 313.025158 
" clip-path="url(#p72ffc661a9)" style="fill: none; stroke: #464646; stroke-width: 1.1; stroke-linecap: round"/>
   </g>
   <g id="line2d_55"/>
   <g id="patch_15">
    <path d="M 524.045625 289.162901 
L 553.004504 289.162901 
L 553.004504 274.198435 
L 524.045625 274.198435 
L 524.045625 289.162901 
z
" clip-path="url(#p72ffc661a9)" style="fill: #ad483e; stroke: #464646; stroke-width: 1.1; stroke-linejoin: miter"/>
   </g>
   <g id="line2d_56">
    <path d="M 538.525065 289.162901 
L 538.525065 296.154023 
" clip-path="url(#p72ffc661a9)" style="fill: none; stroke: #464646; stroke-width: 1.1"/>
   </g>
   <g id="line2d_57">
    <path d="M 538.525065 274.198435 
L 538.525065 262.642862 
" clip-path="url(#p72ffc661a9)" style="fill: none; stroke: #464646; stroke-width: 1.1"/>
   </g>
   <g id="line2d_58">
    <path d="M 531.285345 296.154023 
L 545.764785 296.154023 
" clip-path="url(#p72ffc661a9)" style="fill: none; stroke: #464646; stroke-width: 1.1; stroke-linecap: round"/>
   </g>
   <g id="line2d_59">
    <path d="M 531.285345 262.642862 
L 545.764785 262.642862 
" clip-path="url(#p72ffc661a9)" style="fill: none; stroke: #464646; stroke-width: 1.1; stroke-linecap: round"/>
   </g>
   <g id="line2d_60"/>
   <g id="patch_16">
    <path d="M 652.751756 241.265053 
L 681.710636 241.265053 
L 681.710636 228.553924 
L 652.751756 228.553924 
L 652.751756 241.265053 
z
" clip-path="url(#p72ffc661a9)" style="fill: #ad483e; stroke: #464646; stroke-width: 1.1; stroke-linejoin: miter"/>
   </g>
   <g id="line2d_61">
    <path d="M 667.231196 241.265053 
L 667.231196 254.091739 
" clip-path="url(#p72ffc661a9)" style="fill: none; stroke: #464646; stroke-width: 1.1"/>
   </g>
   <g id="line2d_62">
    <path d="M 667.231196 228.553924 
L 667.231196 216.882796 
" clip-path="url(#p72ffc661a9)" style="fill: none; stroke: #464646; stroke-width: 1.1"/>
   </g>
   <g id="line2d_63">
    <path d="M 659.991476 254.091739 
L 674.470916 254.091739 
" clip-path="url(#p72ffc661a9)" style="fill: none; stroke: #464646; stroke-width: 1.1; stroke-linecap: round"/>
   </g>
   <g id="line2d_64">
    <path d="M 659.991476 216.882796 
L 674.470916 216.882796 
" clip-path="url(#p72ffc661a9)" style="fill: none; stroke: #464646; stroke-width: 1.1; stroke-linecap: round"/>
   </g>
   <g id="line2d_65"/>
   <g id="patch_17">
    <path d="M 781.457887 189.553867 
L 810.416767 189.553867 
L 810.416767 177.131626 
L 781.457887 177.131626 
L 781.457887 189.553867 
z
" clip-path="url(#p72ffc661a9)" style="fill: #ad483e; stroke: #464646; stroke-width: 1.1; stroke-linejoin: miter"/>
   </g>
   <g id="line2d_66">
    <path d="M 795.937327 189.553867 
L 795.937327 203.016109 
" clip-path="url(#p72ffc661a9)" style="fill: none; stroke: #464646; stroke-width: 1.1"/>
   </g>
   <g id="line2d_67">
    <path d="M 795.937327 177.131626 
L 795.937327 165.113831 
" clip-path="url(#p72ffc661a9)" style="fill: none; stroke: #464646; stroke-width: 1.1"/>
   </g>
   <g id="line2d_68">
    <path d="M 788.697607 203.016109 
L 803.177047 203.016109 
" clip-path="url(#p72ffc661a9)" style="fill: none; stroke: #464646; stroke-width: 1.1; stroke-linecap: round"/>
   </g>
   <g id="line2d_69">
    <path d="M 788.697607 165.113831 
L 803.177047 165.113831 
" clip-path="url(#p72ffc661a9)" style="fill: none; stroke: #464646; stroke-width: 1.1; stroke-linecap: round"/>
   </g>
   <g id="line2d_70"/>
   <g id="patch_18">
    <path d="M 910.164018 135.820455 
L 939.122898 135.820455 
L 939.122898 119.700431 
L 910.164018 119.700431 
L 910.164018 135.820455 
z
" clip-path="url(#p72ffc661a9)" style="fill: #ad483e; stroke: #464646; stroke-width: 1.1; stroke-linejoin: miter"/>
   </g>
   <g id="line2d_71">
    <path d="M 924.643458 135.820455 
L 924.643458 149.629364 
" clip-path="url(#p72ffc661a9)" style="fill: none; stroke: #464646; stroke-width: 1.1"/>
   </g>
   <g id="line2d_72">
    <path d="M 924.643458 119.700431 
L 924.643458 102.020405 
" clip-path="url(#p72ffc661a9)" style="fill: none; stroke: #464646; stroke-width: 1.1"/>
   </g>
   <g id="line2d_73">
    <path d="M 917.403738 149.629364 
L 931.883178 149.629364 
" clip-path="url(#p72ffc661a9)" style="fill: none; stroke: #464646; stroke-width: 1.1; stroke-linecap: round"/>
   </g>
   <g id="line2d_74">
    <path d="M 917.403738 102.020405 
L 931.883178 102.020405 
" clip-path="url(#p72ffc661a9)" style="fill: none; stroke: #464646; stroke-width: 1.1; stroke-linecap: round"/>
   </g>
   <g id="line2d_75"/>
   <g id="line2d_76">
    <path d="M 118.621312 379.411763 
L 118.621312 374.306243 
L 137.927232 374.306243 
L 137.927232 379.411763 
" style="fill: none; stroke: #000000; stroke-width: 0.9; stroke-linecap: round"/>
   </g>
   <g id="line2d_77">
    <path d="M 247.327443 332.958361 
L 247.327443 327.852841 
L 266.633363 327.852841 
L 266.633363 332.958361 
" style="fill: none; stroke: #000000; stroke-width: 0.9; stroke-linecap: round"/>
   </g>
   <g id="line2d_78">
    <path d="M 376.033574 287.198294 
L 376.033574 282.092774 
L 395.339494 282.092774 
L 395.339494 287.198294 
" style="fill: none; stroke: #000000; stroke-width: 0.9; stroke-linecap: round"/>
   </g>
   <g id="line2d_79">
    <path d="M 504.739705 242.362673 
L 504.739705 237.257153 
L 524.045625 237.257153 
L 524.045625 242.362673 
" style="fill: none; stroke: #000000; stroke-width: 0.9; stroke-linecap: round"/>
   </g>
   <g id="line2d_80">
    <path d="M 633.445836 184.584811 
L 633.445836 179.479291 
L 652.751756 179.479291 
L 652.751756 184.584811 
" style="fill: none; stroke: #000000; stroke-width: 0.9; stroke-linecap: round"/>
   </g>
   <g id="line2d_81">
    <path d="M 762.151967 134.664738 
L 762.151967 129.559218 
L 781.457887 129.559218 
L 781.457887 134.664738 
" style="fill: none; stroke: #000000; stroke-width: 0.9; stroke-linecap: round"/>
   </g>
   <g id="line2d_82">
    <path d="M 890.858099 85.437999 
L 890.858099 80.332479 
L 910.164018 80.332479 
L 910.164018 85.437999 
" style="fill: none; stroke: #000000; stroke-width: 0.9; stroke-linecap: round"/>
   </g>
   <g id="line2d_83">
    <path d="M 108.968352 406.394184 
L 137.927232 406.394184 
" clip-path="url(#p72ffc661a9)" style="fill: none; stroke: #464646; stroke-width: 1.1"/>
   </g>
   <g id="line2d_84">
    <path d="M 237.674483 363.176343 
L 266.633363 363.176343 
" clip-path="url(#p72ffc661a9)" style="fill: none; stroke: #464646; stroke-width: 1.1"/>
   </g>
   <g id="line2d_85">
    <path d="M 366.380614 322.269616 
L 395.339494 322.269616 
" clip-path="url(#p72ffc661a9)" style="fill: none; stroke: #464646; stroke-width: 1.1"/>
   </g>
   <g id="line2d_86">
    <path d="M 495.086746 278.12733 
L 524.045625 278.12733 
" clip-path="url(#p72ffc661a9)" style="fill: none; stroke: #464646; stroke-width: 1.1"/>
   </g>
   <g id="line2d_87">
    <path d="M 623.792877 231.327261 
L 652.751756 231.327261 
" clip-path="url(#p72ffc661a9)" style="fill: none; stroke: #464646; stroke-width: 1.1"/>
   </g>
   <g id="line2d_88">
    <path d="M 752.499008 177.709405 
L 781.457887 177.709405 
" clip-path="url(#p72ffc661a9)" style="fill: none; stroke: #464646; stroke-width: 1.1"/>
   </g>
   <g id="line2d_89">
    <path d="M 881.205139 120.509321 
L 910.164018 120.509321 
" clip-path="url(#p72ffc661a9)" style="fill: none; stroke: #464646; stroke-width: 1.1"/>
   </g>
   <g id="line2d_90">
    <path d="M 137.927232 408.011964 
L 166.886111 408.011964 
" clip-path="url(#p72ffc661a9)" style="fill: none; stroke: #464646; stroke-width: 1.1"/>
   </g>
   <g id="line2d_91">
    <path d="M 266.633363 365.256346 
L 295.592242 365.256346 
" clip-path="url(#p72ffc661a9)" style="fill: none; stroke: #464646; stroke-width: 1.1"/>
   </g>
   <g id="line2d_92">
    <path d="M 395.339494 326.082955 
L 424.298373 326.082955 
" clip-path="url(#p72ffc661a9)" style="fill: none; stroke: #464646; stroke-width: 1.1"/>
   </g>
   <g id="line2d_93">
    <path d="M 524.045625 282.518447 
L 553.004504 282.518447 
" clip-path="url(#p72ffc661a9)" style="fill: none; stroke: #464646; stroke-width: 1.1"/>
   </g>
   <g id="line2d_94">
    <path d="M 652.751756 235.371711 
L 681.710636 235.371711 
" clip-path="url(#p72ffc661a9)" style="fill: none; stroke: #464646; stroke-width: 1.1"/>
   </g>
   <g id="line2d_95">
    <path d="M 781.457887 183.140524 
L 810.416767 183.140524 
" clip-path="url(#p72ffc661a9)" style="fill: none; stroke: #464646; stroke-width: 1.1"/>
   </g>
   <g id="line2d_96">
    <path d="M 910.164018 126.402663 
L 939.122898 126.402663 
" clip-path="url(#p72ffc661a9)" style="fill: none; stroke: #464646; stroke-width: 1.1"/>
   </g>
   <g id="patch_19">
    <path d="M 67.460625 432.66 
L 67.460625 7.2 
" style="fill: none; stroke: #cccccc; stroke-linejoin: miter; stroke-linecap: square"/>
   </g>
   <g id="patch_20">
    <path d="M 980.630625 432.66 
L 980.630625 7.2 
" style="fill: none; stroke: #cccccc; stroke-linejoin: miter; stroke-linecap: square"/>
   </g>
   <g id="patch_21">
    <path d="M 67.460625 432.66 
L 980.630625 432.66 
" style="fill: none; stroke: #cccccc; stroke-linejoin: miter; stroke-linecap: square"/>
   </g>
   <g id="patch_22">
    <path d="M 67.460625 7.2 
L 980.630625 7.2 
" style="fill: none; stroke: #cccccc; stroke-linejoin: miter; stroke-linecap: square"/>
   </g>
   <g id="text_15">
    <!-- * -->
    <g transform="translate(126.274272 371.876665) scale(0.08 -0.08)">
     <defs>
      <path id="DejaVuSans-2a" d="M 3009 3897 
L 1888 3291 
L 3009 2681 
L 2828 2375 
L 1778 3009 
L 1778 1831 
L 1422 1831 
L 1422 3009 
L 372 2375 
L 191 2681 
L 1313 3291 
L 191 3897 
L 372 4206 
L 1422 3572 
L 1422 4750 
L 1778 4750 
L 1778 3572 
L 2828 4206 
L 3009 3897 
z
" transform="scale(0.015625)"/>
     </defs>
     <use xlink:href="#DejaVuSans-2a"/>
    </g>
   </g>
   <g id="text_16">
    <!-- ** -->
    <g transform="translate(252.980403 325.423263) scale(0.08 -0.08)">
     <use xlink:href="#DejaVuSans-2a"/>
     <use xlink:href="#DejaVuSans-2a" transform="translate(50 0)"/>
    </g>
   </g>
   <g id="text_17">
    <!-- ** -->
    <g transform="translate(381.686534 279.663196) scale(0.08 -0.08)">
     <use xlink:href="#DejaVuSans-2a"/>
     <use xlink:href="#DejaVuSans-2a" transform="translate(50 0)"/>
    </g>
   </g>
   <g id="text_18">
    <!-- * -->
    <g transform="translate(512.392665 234.827575) scale(0.08 -0.08)">
     <use xlink:href="#DejaVuSans-2a"/>
    </g>
   </g>
   <g id="text_19">
    <!-- * -->
    <g transform="translate(641.098796 177.049713) scale(0.08 -0.08)">
     <use xlink:href="#DejaVuSans-2a"/>
    </g>
   </g>
   <g id="text_20">
    <!-- ** -->
    <g transform="translate(767.804927 127.12964) scale(0.08 -0.08)">
     <use xlink:href="#DejaVuSans-2a"/>
     <use xlink:href="#DejaVuSans-2a" transform="translate(50 0)"/>
    </g>
   </g>
   <g id="text_21">
    <!-- * -->
    <g transform="translate(898.511058 77.902901) scale(0.08 -0.08)">
     <use xlink:href="#DejaVuSans-2a"/>
    </g>
   </g>
   <g id="legend_1">
    <g id="patch_23">
     <path d="M 78.660625 66.97 
L 170.558125 66.97 
Q 173.758125 66.97 173.758125 63.77 
L 173.758125 18.4 
Q 173.758125 15.2 170.558125 15.2 
L 78.660625 15.2 
Q 75.460625 15.2 75.460625 18.4 
L 75.460625 63.77 
Q 75.460625 66.97 78.660625 66.97 
z
" style="fill: #ffffff; opacity: 0.8; stroke: #cccccc; stroke-width: 0.8; stroke-linejoin: miter"/>
    </g>
    <g id="patch_24">
     <path d="M 81.860625 33.7575 
L 113.860625 33.7575 
L 113.860625 22.5575 
L 81.860625 22.5575 
z
" style="fill: #5875a4; stroke: #464646; stroke-width: 1.1; stroke-linejoin: miter"/>
    </g>
    <g id="text_22">
     <!-- CPFA -->
     <g style="fill: #262626" transform="translate(126.660625 33.7575) scale(0.16 -0.16)">
      <defs>
       <path id="DejaVuSans-46" d="M 628 4666 
L 3309 4666 
L 3309 4134 
L 1259 4134 
L 1259 2759 
L 3109 2759 
L 3109 2228 
L 1259 2228 
L 1259 0 
L 628 0 
L 628 4666 
z
" transform="scale(0.015625)"/>
       <path id="DejaVuSans-41" d="M 2188 4044 
L 1331 1722 
L 3047 1722 
L 2188 4044 
z
M 1831 4666 
L 2547 4666 
L 4325 0 
L 3669 0 
L 3244 1197 
L 1141 1197 
L 716 0 
L 50 0 
L 1831 4666 
z
" transform="scale(0.015625)"/>
      </defs>
      <use xlink:href="#DejaVuSans-43"/>
      <use xlink:href="#DejaVuSans-50" transform="translate(69.824219 0)"/>
      <use xlink:href="#DejaVuSans-46" transform="translate(130.126953 0)"/>
      <use xlink:href="#DejaVuSans-41" transform="translate(178.521484 0)"/>
     </g>
    </g>
    <g id="patch_25">
     <path d="M 81.860625 57.2425 
L 113.860625 57.2425 
L 113.860625 46.0425 
L 81.860625 46.0425 
z
" style="fill: #ad483e; stroke: #464646; stroke-width: 1.1; stroke-linejoin: miter"/>
    </g>
    <g id="text_23">
     <!-- PPSA -->
     <g style="fill: #262626" transform="translate(126.660625 57.2425) scale(0.16 -0.16)">
      <defs>
       <path id="DejaVuSans-53" d="M 3425 4513 
L 3425 3897 
Q 3066 4069 2747 4153 
Q 2428 4238 2131 4238 
Q 1616 4238 1336 4038 
Q 1056 3838 1056 3469 
Q 1056 3159 1242 3001 
Q 1428 2844 1947 2747 
L 2328 2669 
Q 3034 2534 3370 2195 
Q 3706 1856 3706 1288 
Q 3706 609 3251 259 
Q 2797 -91 1919 -91 
Q 1588 -91 1214 -16 
Q 841 59 441 206 
L 441 856 
Q 825 641 1194 531 
Q 1563 422 1919 422 
Q 2459 422 2753 634 
Q 3047 847 3047 1241 
Q 3047 1584 2836 1778 
Q 2625 1972 2144 2069 
L 1759 2144 
Q 1053 2284 737 2584 
Q 422 2884 422 3419 
Q 422 4038 858 4394 
Q 1294 4750 2059 4750 
Q 2388 4750 2728 4690 
Q 3069 4631 3425 4513 
z
" transform="scale(0.015625)"/>
      </defs>
      <use xlink:href="#DejaVuSans-50"/>
      <use xlink:href="#DejaVuSans-50" transform="translate(60.302734 0)"/>
      <use xlink:href="#DejaVuSans-53" transform="translate(120.605469 0)"/>
      <use xlink:href="#DejaVuSans-41" transform="translate(185.957031 0)"/>
     </g>
    </g>
   </g>
  </g>
 </g>
 <defs>
  <clipPath id="p72ffc661a9">
   <rect x="67.460625" y="7.2" width="913.17" height="425.46"/>
  </clipPath>
 </defs>
</svg>
